<svg width="30" height="31" viewBox="0 0 30 31" fill="none" xmlns="http://www.w3.org/2000/svg">
<g clip-path="url(#clip0_6511_8108)">
<g clip-path="url(#clip1_6511_8108)">
<g clip-path="url(#clip2_6511_8108)">
<mask id="mask0_6511_8108" style="mask-type:luminance" maskUnits="userSpaceOnUse" x="0" y="0" width="30" height="31">
<path d="M30 0.800049H0V30.8H30V0.800049Z" fill="white"/>
</mask>
<g mask="url(#mask0_6511_8108)">
<path d="M24.1875 14.1125H12.9375V14.8625L13.125 15.2375L14.0625 16.175L14.8125 16.55L15.1875 17.1125L15 17.8625L13.6875 18.425L12.9375 19.7375L12.75 23.675L13.3125 27.9875L13.6875 29.3L14.4375 30.05C14.625 30.1126 15.075 30.2375 15.375 30.2375C15.75 30.2375 17.4375 30.425 17.8125 30.425H19.875H21.1875L20.8125 29.675C20.6875 29.3626 20.4375 28.625 20.4375 28.175C20.4375 27.725 20.3125 26.4875 20.25 25.925V23.1125C20.25 22.8125 20.625 20.6125 20.8125 19.55V18.9875C20.8125 18.8 21.375 18.8 21.5625 18.6125C21.75 18.425 22.3125 18.425 22.5 18.425C22.6875 18.425 23.25 18.2375 23.4375 18.2375C23.625 18.2375 23.25 18.05 23.0625 17.8625C22.875 17.675 23.0625 17.675 23.0625 17.4875C23.0625 17.3 23.0625 16.925 22.875 16.7375C22.725 16.5875 23.1875 16.3 23.4375 16.175C23.625 16.1125 24 15.95 24 15.8C24 15.65 24.375 15.4876 24.5625 15.425L24.9375 14.8625V14.3L24.1875 14.1125Z" fill="#FDC040"/>
<path d="M2.83594 23.8973C2.83594 24.8366 3.60006 25.6007 4.53927 25.6007C5.4785 25.6007 6.24264 24.8366 6.24264 23.8973C6.24264 22.9581 5.4785 22.194 4.53927 22.194C3.60006 22.194 2.83594 22.9581 2.83594 23.8973ZM5.36379 23.8973C5.36379 24.352 4.99396 24.7218 4.53931 24.7218C4.0847 24.7218 3.7149 24.352 3.7149 23.8973C3.7149 23.4427 4.08474 23.0729 4.53931 23.0729C4.99389 23.0729 5.36379 23.4428 5.36379 23.8973Z" fill="#3BB77E"/>
<path d="M6.70432 21.5493C7.44378 21.5493 8.04539 20.9476 8.04539 20.2082C8.04539 19.4688 7.44378 18.8672 6.70432 18.8672C5.96486 18.8672 5.36328 19.4688 5.36328 20.2082C5.36328 20.9476 5.96486 21.5493 6.70432 21.5493ZM6.70432 19.746C6.95921 19.746 7.16651 19.9533 7.16651 20.2082C7.16651 20.463 6.95921 20.6703 6.70432 20.6703C6.44951 20.6703 6.24217 20.463 6.24217 20.2082C6.24217 19.9533 6.44954 19.746 6.70432 19.746Z" fill="#3BB77E"/>
<path d="M11.3814 27.049C11.3814 26.3096 10.7798 25.708 10.0403 25.708C9.30087 25.708 8.69922 26.3096 8.69922 27.049C8.69922 27.7885 9.30087 28.3901 10.0403 28.3901C10.7798 28.3901 11.3814 27.7885 11.3814 27.049ZM9.57818 27.049C9.57818 26.7942 9.78548 26.5869 10.0404 26.5869C10.2953 26.5869 10.5026 26.7942 10.5026 27.049C10.5026 27.3039 10.2953 27.5112 10.0404 27.5112C9.78548 27.5112 9.57818 27.3039 9.57818 27.049Z" fill="#3BB77E"/>
<path d="M29.0637 19.6349C28.9371 18.7143 28.1419 18.0202 27.2139 18.0202H26.9026L27.2026 17.2402C27.2897 17.0137 27.1767 16.7593 26.9501 16.6723C26.7235 16.5851 26.4693 16.6982 26.3823 16.9247L25.961 18.0202H24.1323C24.0703 17.9905 24.0076 17.9626 23.9438 17.9387C23.4869 17.7685 23.2553 17.5032 23.2553 17.1505C23.2553 16.8218 23.8109 16.5553 24.0502 16.4557C24.7602 16.1594 25.2691 15.5329 25.4115 14.7792C25.7064 13.2143 25.8404 11.5399 25.8941 10.6806C25.9214 10.2343 25.8203 9.79776 25.602 9.41807C24.4547 7.4233 22.3765 6.06505 21.6814 5.64929V4.24396H21.7044C21.9471 4.24396 22.1438 4.0472 22.1438 3.8045V2.22429C22.1438 1.43896 21.5049 0.800049 20.7195 0.800049H17.2392C16.4539 0.800049 15.8149 1.43896 15.8149 2.22429V3.8045C15.8149 4.0472 16.0116 4.24396 16.2544 4.24396H16.2774V5.6491C15.8288 5.91741 14.804 6.57872 13.8253 7.54986V7.24154C14.3258 6.97075 14.6666 6.44091 14.6666 5.83296C14.6666 4.95047 13.9487 4.23259 13.0662 4.23259H6.12251C5.24006 4.23259 4.52216 4.95055 4.52216 5.83296C4.52216 6.44106 4.86311 6.97097 5.36385 7.24172V8.58629C4.76231 8.93721 3.12821 9.98027 1.68868 11.7095C1.43004 12.0211 1.26522 12.3991 1.21202 12.803C1.14047 13.3465 1.03325 14.2339 0.928834 15.3743C0.906687 15.6161 1.08469 15.8299 1.32639 15.8521C1.33999 15.8533 1.35352 15.854 1.36694 15.854C1.59153 15.854 1.78319 15.6826 1.80405 15.4545C1.90718 14.3284 2.01282 13.4534 2.08337 12.9178C2.10633 12.7436 2.16458 12.5778 2.25317 12.4296H12.212C12.2895 13.1606 12.3978 13.9843 12.5473 14.7789C12.689 15.5326 13.1979 16.1594 13.909 16.4558C14.1477 16.5551 14.7029 16.8216 14.7029 17.1505C14.7029 17.5033 14.4715 17.7685 14.0149 17.9388C13.1949 18.245 12.6167 19.0006 12.542 19.8634C12.369 21.8538 12.2406 25.7052 13.3247 29.1368C13.416 29.426 13.5584 29.6873 13.7398 29.9129C13.6554 29.918 13.5708 29.9212 13.4859 29.9212H5.7024C3.5778 29.9212 1.79163 28.2645 1.636 26.1495C1.43502 23.4177 1.44469 20.4053 1.66483 17.1961C1.68141 16.9539 1.4986 16.7442 1.25649 16.7275C1.01456 16.7108 0.804556 16.8937 0.787973 17.1359C0.565024 20.3865 0.555417 23.4409 0.759499 26.214C0.851491 27.4648 1.40924 28.6238 2.32999 29.4774C3.24991 30.3303 4.44761 30.8 5.7024 30.8H13.486C13.9106 30.8 14.331 30.7461 14.7381 30.6402C15.0076 30.7436 15.2994 30.7997 15.6024 30.7997L27.2139 30.8C28.1419 30.8 28.9371 30.1059 29.0637 29.1853C29.4993 26.0167 29.4993 22.8035 29.0637 19.6349ZM28.4705 26.0708C28.1204 26.285 27.7222 26.3976 27.3071 26.3976C26.0754 26.3976 25.0735 25.3959 25.0735 24.1646C25.0735 22.9331 26.0755 21.9311 27.3071 21.9311C27.7109 21.9311 28.0992 22.0376 28.4416 22.2404C28.5226 23.5159 28.5325 24.7946 28.4705 26.0708ZM25.0169 10.6263C24.9749 11.2978 24.8827 12.4792 24.7008 13.7029H13.2583C13.0767 12.4803 12.9839 11.2984 12.9414 10.6268C12.9247 10.3526 12.9858 10.0863 13.1187 9.85607C13.1723 9.76285 13.2285 9.67112 13.2867 9.58079H24.672C24.7302 9.67112 24.7864 9.76289 24.8401 9.85611C24.9725 10.0863 25.0335 10.3528 25.0169 10.6263ZM6.24277 7.43339H12.9464V8.40422H6.24277V7.43339ZM16.6938 2.22429C16.6938 1.92358 16.9385 1.67896 17.2392 1.67896H20.7195C21.0202 1.67896 21.2649 1.92358 21.2649 2.22429V3.36505H16.6938V2.22429ZM20.8026 4.24396V5.46381H17.1563V4.24396H20.8026ZM16.8327 6.34274H21.126C21.4971 6.55945 22.8915 7.41902 24.0073 8.70194H13.9514C15.0672 7.4188 16.4621 6.55919 16.8327 6.34274ZM6.12251 5.1115H13.0662C13.464 5.1115 13.7877 5.43516 13.7877 5.83296C13.7877 6.23065 13.4643 6.55412 13.0667 6.55442H6.12195C5.72434 6.55412 5.40101 6.23057 5.40101 5.83296C5.40101 5.43516 5.72468 5.1115 6.12251 5.1115ZM3.01547 11.5507C4.28366 10.2506 5.5698 9.47942 5.91634 9.28326H12.437C12.4101 9.32777 12.3831 9.37221 12.3572 9.41736C12.1382 9.79682 12.0369 10.2336 12.0643 10.6814C12.0791 10.9164 12.1001 11.2127 12.1286 11.5507H3.01547ZM27.2139 29.9211H22.3565L22.0483 29.9209C21.5598 29.9179 21.1419 29.5514 21.0751 29.0656C21.0059 28.5619 20.9477 28.0549 20.9022 27.5588C20.8799 27.3172 20.666 27.1389 20.4243 27.1614C20.1826 27.1836 20.0047 27.3976 20.027 27.6393C20.0737 28.1484 20.1335 28.6685 20.2044 29.1853C20.2413 29.4536 20.3354 29.7025 20.4727 29.9208H15.6024C14.9394 29.9208 14.3609 29.4993 14.1629 28.872C13.1246 25.5854 13.2503 21.8647 13.4176 19.9393C13.4632 19.4124 13.8184 18.9503 14.3222 18.7621C15.1227 18.4637 15.5819 17.8762 15.5819 17.1504C15.5819 16.7167 15.3502 16.1034 14.2469 15.6444C13.8103 15.4624 13.4978 15.0782 13.4111 14.6165C13.4089 14.6049 13.4068 14.5933 13.4047 14.5817H24.5542C24.5521 14.5931 24.55 14.6047 24.5478 14.6161C24.4605 15.0781 24.1479 15.4625 23.7122 15.6443C22.608 16.1036 22.3763 16.7168 22.3763 17.1505C22.3763 17.4719 22.4668 17.7661 22.6368 18.0202H22.0541C21.1261 18.0202 20.3309 18.7143 20.2043 19.6348C19.9206 21.6946 19.821 23.7933 19.9081 25.8725C19.9184 26.1151 20.1255 26.3031 20.3656 26.2932C20.6081 26.2831 20.7965 26.0782 20.7863 25.8358C20.7014 23.8087 20.7985 21.7627 21.075 19.7547C21.1422 19.2669 21.563 18.8991 22.0541 18.8991H27.2139C27.705 18.8991 28.1259 19.2669 28.193 19.7546C28.2607 20.2472 28.3164 20.741 28.3626 21.2355C28.0273 21.1147 27.6717 21.0521 27.3071 21.0521C25.5908 21.0521 24.1946 22.4484 24.1946 24.1646C24.1946 25.8806 25.5908 27.2765 27.3071 27.2765C27.6877 27.2765 28.0581 27.2086 28.4061 27.0772C28.3541 27.7413 28.2839 28.4044 28.193 29.0655C28.1259 29.5533 27.705 29.9211 27.2139 29.9211Z" fill="#3BB77E"/>
</g>
</g>
</g>
</g>
<defs>
<clipPath id="clip0_6511_8108">
<rect width="30" height="30" fill="white" transform="translate(0 0.800049)"/>
</clipPath>
<clipPath id="clip1_6511_8108">
<rect width="30" height="30" fill="white" transform="translate(0 0.800049)"/>
</clipPath>
<clipPath id="clip2_6511_8108">
<rect width="30" height="30" fill="white" transform="translate(0 0.800049)"/>
</clipPath>
</defs>
</svg>
