<svg width="30" height="31" viewBox="0 0 30 31" fill="none" xmlns="http://www.w3.org/2000/svg">
<g clip-path="url(#clip0_6511_8125)">
<g clip-path="url(#clip1_6511_8125)">
<g clip-path="url(#clip2_6511_8125)">
<mask id="mask0_6511_8125" style="mask-type:luminance" maskUnits="userSpaceOnUse" x="0" y="0" width="30" height="31">
<path d="M30 0.800049H0V30.8H30V0.800049Z" fill="white"/>
</mask>
<g mask="url(#mask0_6511_8125)">
<path d="M8.4375 22.1751C7.5375 22.0251 7.06249 22.3626 6.9375 22.5501L6.75 22.7376C6.5625 22.9876 6.1875 23.5251 6.1875 23.6751V24.8001C6.1875 24.9876 6.1875 25.5501 6.375 25.9251C6.5625 26.3001 6.5625 26.4876 6.75 26.6751C6.9375 26.8626 7.125 27.0501 7.3125 27.0501C7.5 27.0501 8.4375 27.2376 8.625 27.2376H10.6875C11.25 27.2376 11.4375 27.0501 11.8125 27.0501C12.1875 27.0501 12.5625 26.8626 12.5625 26.6751C12.5625 26.4876 12.75 26.3001 12.9375 26.1126C13.125 25.9251 12.9375 25.5501 13.125 25.2409C13.3125 24.9316 13.125 24.8001 13.125 24.6126V23.6751C13.125 23.4876 12.9375 23.3001 12.9375 23.1126C12.9375 22.9251 12.5625 22.7376 12.375 22.5501C12.225 22.4001 11.8125 22.2376 11.625 22.1751C10.9375 22.2376 9.3375 22.3251 8.4375 22.1751Z" fill="#FDC040"/>
<path d="M25.125 12.425C22.425 13.475 17.25 12.8626 15 12.425L14.4375 12.8L13.5 14.3L12.9375 15.6125C13.5375 15.7625 15.3125 17.3 16.125 18.05L16.6875 19.175C18.0375 19.325 18.375 20.4875 18.375 21.05L18.5625 24.9875C21.1125 25.7375 27 24.55 29.625 23.8625C29.775 23.5625 29.1875 20.3626 28.875 18.8C28.125 16.55 26.0625 13.6126 25.125 12.425Z" fill="#FDC040"/>
<path d="M27.7858 15.3943C26.8902 13.7575 26 12.6998 25.6793 12.3417V9.92589L29.8396 6.50983C29.9386 6.42842 29.9973 6.30789 30.0001 6.17968C30.0029 6.05147 29.9495 5.9285 29.854 5.84293L26.7063 3.02154C26.5255 2.85957 26.2477 2.87481 26.0857 3.05546C25.9236 3.23617 25.9389 3.51404 26.1196 3.67605L28.886 6.1556L25.6795 8.78852V6.99125C25.6795 6.74855 25.4828 6.55175 25.24 6.55175C24.9972 6.55175 24.8005 6.74855 24.8005 6.99125L24.8003 12.1417C21.6624 12.6495 18.4866 12.6494 15.3488 12.1415V6.99125C15.3488 6.74855 15.1521 6.55175 14.9093 6.55175C14.6665 6.55175 14.4698 6.74855 14.4698 6.99125V8.78867L11.2631 6.1556L14.6841 3.08886C15.1874 2.63756 15.8373 2.44999 16.4628 2.52429C16.5916 3.07755 16.8874 4.23805 17.3416 5.39417C18.088 7.29388 18.9586 8.4296 19.9292 8.76962C19.9763 8.78608 20.0254 8.79437 20.0745 8.79437C20.1236 8.79437 20.1727 8.78608 20.2197 8.76962C21.1903 8.4296 22.061 7.29388 22.8076 5.3942C23.2611 4.24028 23.5565 3.08283 23.6858 2.52822C24.073 2.48192 24.4729 2.53372 24.8446 2.69287C25.0679 2.78844 25.3261 2.6849 25.4216 2.46183C25.5172 2.23869 25.4137 1.9804 25.1906 1.88489C24.0616 1.40153 22.7455 1.62355 21.8372 2.45028L21.4316 2.81944C20.6578 3.524 19.4914 3.524 18.7179 2.81944L18.3124 2.45028C17.115 1.36016 15.3028 1.35342 14.0973 2.43452L10.295 5.84304C10.1995 5.92862 10.1461 6.05165 10.149 6.17979C10.1517 6.308 10.2103 6.42853 10.3094 6.50994L14.4697 9.92604V12.3415C14.1816 12.6621 13.4412 13.5377 12.652 14.8804C11.9836 14.5242 11.2768 14.1726 10.5608 13.8166C9.93513 13.5055 9.30494 13.1921 8.7 12.8739C9.29122 12.1335 9.7473 11.2955 9.94713 10.313C10.2525 8.81158 9.8058 7.47043 8.72148 6.63339C7.69353 5.83989 6.27791 5.663 5.19877 6.19322C4.6203 6.47743 3.64989 7.21502 3.64989 8.96143C3.64989 10.0669 4.35195 11.1119 5.79626 12.1564C6.24802 12.4831 6.75596 12.7994 7.29656 13.1082C6.62632 13.7675 5.85716 14.3542 5.13048 14.9084C3.56604 16.1017 2.08174 17.2347 2.04336 18.7613C1.08625 18.9907 0.347768 19.7888 0.219208 20.7941C-0.0730693 23.0829 -0.0730693 25.4039 0.219208 27.6928C0.36687 28.8468 1.31876 29.7288 2.48271 29.7898C4.8165 29.9115 7.16666 29.9723 9.5169 29.9723C11.8671 29.9723 14.2174 29.9114 16.5512 29.7898C17.7154 29.7287 18.667 28.8467 18.814 27.6928C18.9016 27.0085 18.9623 26.3213 18.9975 25.6329C19.3551 25.6436 19.7156 25.6494 20.0745 25.6494C25.8116 25.6494 29.5547 24.307 29.7113 24.2499C29.8847 24.1865 30.0001 24.0217 30.0001 23.8371C30.0002 20.204 28.796 17.2406 27.7858 15.3943ZM18.1262 3.46903C19.2367 4.48093 20.9123 4.48093 22.0235 3.46915L22.429 3.10005C22.5114 3.02505 22.5985 2.95702 22.6894 2.89596C22.5367 3.47817 22.3026 4.27655 21.9897 5.07257C21.2572 6.93669 20.5655 7.6352 20.0746 7.87843C19.5838 7.6352 18.8922 6.93669 18.1598 5.07257C17.847 4.27643 17.6128 3.47753 17.4601 2.89508C17.5506 2.9562 17.6378 3.02441 17.7209 3.09999L18.1262 3.46903ZM4.52906 8.96117C4.52906 8.00619 4.89472 7.32174 5.58656 6.9818C5.87591 6.83964 6.20655 6.77068 6.5469 6.77068C7.11562 6.77068 7.7112 6.96339 8.18463 7.32887C8.66002 7.6958 9.40923 8.54867 9.0861 10.1375C8.90895 11.0085 8.47556 11.7662 7.90998 12.4455C6.01061 11.3811 4.52906 10.2511 4.52906 8.96117ZM2.52854 19.5751C3.31191 19.5344 4.09556 19.5004 4.85778 19.4741C5.10037 19.4656 5.29016 19.2623 5.28172 19.0197C5.27328 18.777 5.07142 18.588 4.82733 18.5957C4.20573 18.6172 3.56991 18.6439 2.93168 18.675C3.04488 17.6054 4.26896 16.6708 5.66373 15.6071C6.48307 14.9821 7.35288 14.3187 8.10048 13.5504C8.77395 13.9093 9.47711 14.259 10.1696 14.6034C10.8628 14.9481 11.5617 15.2957 12.2244 15.6493C11.7891 16.4765 11.3609 17.4391 11.0065 18.5236C9.52815 18.5071 8.05222 18.5135 6.58732 18.5457C6.34462 18.551 6.15225 18.752 6.15757 18.9947C6.1629 19.2374 6.36288 19.4318 6.60652 19.4244C9.88263 19.3525 13.2132 19.4032 16.5056 19.5751C17.2449 19.6134 17.8491 20.1728 17.9424 20.9053C18.0041 21.3877 18.0516 21.8715 18.0864 22.3561C18.0508 22.8425 18.0026 23.3253 17.9424 23.7924C17.8492 24.5244 17.2447 25.0835 16.5049 25.1219C15.5098 25.1738 14.5102 25.2143 13.5247 25.2439C13.5458 24.6233 13.5321 24.0002 13.4824 23.3831C13.4152 22.5484 12.7381 21.8847 11.9075 21.8393C10.4855 21.7615 9.04342 21.7614 7.62172 21.8393C6.7911 21.8847 6.11407 22.5484 6.04683 23.3831C5.99673 24.0049 5.9832 24.6328 6.00498 25.2581C4.84766 25.2273 3.68089 25.1822 2.52854 25.1219C1.78894 25.0835 1.18446 24.5245 1.09129 23.7923C1.03234 23.3306 0.984003 22.8494 0.947204 22.3614C0.982012 21.875 1.02948 21.3894 1.09129 20.9053C1.18493 20.1729 1.78941 19.6134 2.52854 19.5751ZM12.9978 16.0756C14.4216 16.8904 15.5719 17.7426 15.9585 18.6692C14.6186 18.6052 13.2738 18.5609 11.9293 18.5368C12.2461 17.6193 12.619 16.7945 12.9978 16.0756ZM12.6062 25.9242C12.5741 26.3227 12.2531 26.6394 11.8595 26.661C10.4694 26.7371 9.05985 26.7371 7.66965 26.661C7.27605 26.6394 6.95501 26.3227 6.92287 25.9242C6.85683 25.1046 6.85683 24.2733 6.92287 23.4537C6.95501 23.0552 7.27605 22.7384 7.66968 22.7169C8.36471 22.6789 9.06465 22.6598 9.76455 22.6598C10.4645 22.6598 11.1644 22.6789 11.8595 22.7169C12.2531 22.7384 12.5741 23.0552 12.6062 23.4537C12.6723 24.2733 12.6723 25.1046 12.6062 25.9242ZM16.5055 28.9118C11.8683 29.1536 7.16587 29.1536 2.52883 28.9118C1.78958 28.8731 1.18493 28.3134 1.09129 27.5811C0.994376 26.8221 0.931443 26.0593 0.900975 25.2955C1.31032 25.7059 1.86681 25.9677 2.48283 25.9996C3.67005 26.0618 4.87278 26.108 6.06491 26.139C6.1938 26.9048 6.83958 27.4959 7.62165 27.5386C8.33265 27.5776 9.04863 27.597 9.76455 27.597C10.4805 27.597 11.1965 27.5776 11.9074 27.5386C12.6943 27.4956 13.343 26.8975 13.4663 26.125C14.4856 26.0951 15.5206 26.0535 16.5505 25.9996C17.1669 25.9677 17.7236 25.7057 18.133 25.2952C18.1025 26.0591 18.0394 26.8221 17.9424 27.5813C17.8491 28.3135 17.2447 28.8731 16.5055 28.9118ZM27.6789 23.9139C27.5885 22.5927 27.4214 21.2764 27.1806 19.9935C27.1358 19.7549 26.9064 19.5979 26.6676 19.6427C26.4291 19.6874 26.2719 19.9171 26.3168 20.1557C26.5593 21.4478 26.7244 22.775 26.8101 24.1064C26.4718 24.1757 26.0881 24.2477 25.6634 24.3178C25.6103 22.5504 25.4217 20.7906 25.1007 19.0793C25.0559 18.8407 24.8262 18.6837 24.5877 18.7283C24.3492 18.7731 24.1921 19.0027 24.2368 19.2413C24.5558 20.9422 24.7409 22.6925 24.7882 24.45C23.4778 24.6298 21.8775 24.7703 20.0745 24.7703C19.7259 24.7703 19.3757 24.7648 19.0284 24.7544C19.0532 23.4318 18.9821 22.1077 18.8141 20.7943C18.6823 19.7594 17.9039 18.9442 16.9057 18.7427C16.583 17.3998 15.2043 16.321 13.4271 15.3068C14.1295 14.118 14.7867 13.316 15.0736 12.987C16.7335 13.2632 18.4041 13.4018 20.0748 13.4018C21.7453 13.4018 23.4158 13.2633 25.0756 12.9871C25.4054 13.3642 26.2217 14.3613 27.029 15.8426C27.954 17.5399 29.0512 20.2302 29.1179 23.5211C28.8321 23.6113 28.342 23.7556 27.6789 23.9139Z" fill="#3BB77E"/>
<path d="M11.527 23.3834C10.94 23.356 10.3467 23.342 9.76347 23.342C9.18019 23.342 8.58687 23.356 7.99984 23.3834C7.77567 23.3939 7.5954 23.5716 7.58172 23.7957C7.54568 24.3883 7.54568 24.9894 7.58172 25.5821C7.59537 25.8062 7.77567 25.9839 7.99984 25.9944C8.58638 26.0218 9.17978 26.0358 9.76347 26.0358C10.3471 26.0358 10.9404 26.0219 11.527 25.9944C11.7512 25.9839 11.9314 25.8062 11.9451 25.5821C11.9811 24.9894 11.9811 24.3884 11.9451 23.7957C11.9315 23.5717 11.7512 23.3939 11.527 23.3834ZM11.0862 25.133C10.2028 25.1647 9.324 25.1647 8.44077 25.133C8.43135 24.8374 8.43135 24.5405 8.44077 24.2449C9.32457 24.2131 10.2024 24.2131 11.0862 24.2449C11.0956 24.5405 11.0956 24.8374 11.0862 25.133Z" fill="#3BB77E"/>
</g>
</g>
</g>
</g>
<defs>
<clipPath id="clip0_6511_8125">
<rect width="30" height="30" fill="white" transform="translate(0 0.800049)"/>
</clipPath>
<clipPath id="clip1_6511_8125">
<rect width="30" height="30" fill="white" transform="translate(0 0.800049)"/>
</clipPath>
<clipPath id="clip2_6511_8125">
<rect width="30" height="30" fill="white" transform="translate(0 0.800049)"/>
</clipPath>
</defs>
</svg>
