<svg width="30" height="31" viewBox="0 0 30 31" fill="none" xmlns="http://www.w3.org/2000/svg">
<g clip-path="url(#clip0_6511_8093)">
<g clip-path="url(#clip1_6511_8093)">
<g clip-path="url(#clip2_6511_8093)">
<path d="M3.75 12.425L3.375 10.3625V8.48755C3.4375 8.05004 3.6 7.17505 3.75 7.17505C3.9 7.17505 4.875 6.80005 5.625 6.61255L7.125 6.42505C7.5 6.42505 7.6875 6.42505 9.5625 6.05005C9.70958 6.02065 10.6875 5.86255 11.0625 5.86255L10.5 5.11255L11.25 5.86255L12 6.61255L12.1875 7.17505C11.9375 7.23756 11.3625 7.36255 11.0625 7.36255H9.5625L8.8125 7.73755V8.30005C8.8125 8.45005 8.68751 9.73754 8.625 10.3625L8.4375 12.2375L7.6875 12.425H4.125H3.75Z" fill="#FDC040"/>
<path d="M17.625 7.36258L18.375 6.42508L20.8125 4.73758L23.625 3.61258C24.5 3.36259 26.475 2.97508 27.375 3.42508C28.5 3.98758 28.6875 4.17508 29.625 5.86258C29.5625 7.17508 29.325 9.91258 28.875 10.3626L27.9375 12.0501L27.375 12.4251H24.5625H20.4375H19.125V11.1126C19.125 10.9251 18.9375 9.61258 18.9375 9.42508V8.30008L18.75 7.55008L18.375 7.36258H17.625Z" fill="#FDC040"/>
<path d="M21.5374 6.03224C21.2765 6.29313 21.1328 6.63997 21.1328 7.00889C21.1328 7.37778 21.2765 7.72462 21.5373 7.9855L24.73 11.1782C24.9909 11.4391 25.3377 11.5827 25.7066 11.5827C26.0755 11.5827 26.4223 11.439 26.6831 11.1782C26.944 10.9173 27.0877 10.5705 27.0877 10.2016C27.0877 9.83268 26.944 9.48584 26.6832 9.22495L23.4905 6.0322C22.952 5.49374 22.0757 5.49389 21.5374 6.03224ZM26.0617 9.84652C26.1565 9.94132 26.2088 10.0675 26.2088 10.2016C26.2088 10.3357 26.1565 10.4618 26.0617 10.5567C25.9669 10.6515 25.8407 10.7038 25.7066 10.7038C25.5724 10.7038 25.4463 10.6515 25.3515 10.5567L22.1587 7.3639C22.0639 7.2691 22.0117 7.14295 22.0117 7.00882C22.0117 6.87468 22.0639 6.7486 22.1588 6.65373C22.2567 6.55582 22.3852 6.50688 22.5139 6.50688C22.6424 6.50688 22.7711 6.55582 22.869 6.65373L26.0617 9.84652Z" fill="#3BB77E"/>
<path d="M29.8932 14.1228C29.7094 13.2149 29.054 12.4868 28.2156 12.1777C30.2947 8.70909 30.5829 5.46087 28.9197 3.79752C28.19 3.06795 27.1333 2.6944 25.8615 2.71784C25.6188 2.72229 25.4257 2.92263 25.4301 3.16527C25.4345 3.40523 25.6304 3.59672 25.8694 3.59672C25.8721 3.59672 25.8749 3.59672 25.8776 3.59666C26.9181 3.57738 27.7335 3.8543 28.2982 4.41899C29.1714 5.29224 29.195 6.61902 29.061 7.57831C28.8715 8.93491 28.2578 10.4648 27.2843 12.0158C24.7496 11.9675 22.204 11.9341 19.6543 11.9158C19.6377 10.419 19.5451 8.90405 19.3768 7.40532C19.3538 7.20072 19.1918 7.03947 18.987 7.01742C18.856 7.00336 18.7247 6.99084 18.5936 6.97782C20.4488 5.40901 22.4322 4.30397 24.2579 3.83292C24.493 3.77227 24.6343 3.53261 24.5736 3.29759C24.513 3.06256 24.2732 2.92116 24.0383 2.98187C23.3387 3.16241 22.6191 3.42866 21.8938 3.77186C22.035 3.1576 22.1024 2.42123 21.8327 1.87177C21.6703 1.54064 21.4013 1.31487 21.055 1.21884C20.5419 1.07668 19.7448 1.15133 18.8592 2.31476C18.8164 2.37107 18.775 2.42779 18.7351 2.48421C18.7304 2.46752 18.7255 2.45087 18.7204 2.43417C18.5464 1.85513 18.0915 0.883667 16.9987 0.883667C16.6191 0.883667 16.2882 1.03496 16.0416 1.32114C15.7196 1.69481 15.5787 2.2752 15.5282 2.85366C15.1436 2.34786 14.6777 1.94132 14.1738 1.94132C13.8464 1.94132 13.5478 2.10809 13.3332 2.41091C12.7677 3.20864 12.7595 4.93745 13.2848 6.74877C13.1532 6.75042 13.0218 6.75339 12.8903 6.75616C12.0293 5.75146 10.9885 5.06004 10.5332 4.78336V3.82002C10.7395 3.78387 10.8964 3.60428 10.8964 3.38759V2.14682C10.8964 1.47812 10.3524 0.934118 9.6837 0.934118H6.95093C6.28223 0.934118 5.73821 1.47812 5.73821 2.14682V3.38759C5.73821 3.60428 5.89519 3.78387 6.10151 3.82002L6.10118 4.78317C5.50781 5.14355 3.9228 6.2057 3.03571 7.748C2.85477 8.06127 2.77098 8.42232 2.79366 8.79294C2.8362 9.46839 2.94184 10.7815 3.17148 12.0077C2.99154 12.011 2.81141 12.014 2.63158 12.0175C1.41091 12.0405 0.349034 12.926 0.106799 14.1226C-0.0355897 14.8237 -0.0355897 15.5347 0.10674 16.2354C0.28452 17.115 0.907571 17.8409 1.73049 18.1613C1.77878 19.0559 1.86145 20.3281 1.99681 21.774C1.63404 22.8015 1.27872 23.8293 0.934057 24.8551C0.6375 25.7387 1.03455 26.7192 1.85817 27.1363C2.17154 27.2945 2.50103 27.4172 2.83825 27.5026C3.15343 28.3963 3.71596 29.1674 4.47818 29.7437C5.31983 30.38 6.32276 30.7164 7.37854 30.7164H22.6215C23.6773 30.7164 24.6802 30.38 25.5219 29.7437C26.2842 29.1673 26.8467 28.3962 27.1619 27.5023C27.5007 27.4163 27.8301 27.2934 28.1421 27.1357C28.9659 26.7194 29.363 25.7387 29.066 24.8545C28.721 23.8281 28.3658 22.8003 28.0033 21.7736C28.1386 20.3278 28.2213 19.0556 28.2696 18.1611C29.0934 17.8398 29.7157 17.1144 29.8932 16.2359C30.0356 15.5346 30.0356 14.8236 29.8932 14.1228ZM18.5412 7.85506C18.6819 9.20454 18.76 10.5651 18.7754 11.9106C15.5157 11.8917 12.2507 11.8971 8.99426 11.9272C9.00922 10.5764 9.08745 9.21027 9.2286 7.85499C12.3201 7.54655 15.4495 7.54655 18.5412 7.85506ZM14.0502 2.91917C14.0822 2.87405 14.1296 2.82026 14.1738 2.82026C14.4901 2.82026 15.1538 3.72299 15.6258 4.79517C15.7035 4.98515 15.9037 5.09682 16.1076 5.0615C16.3182 5.02494 16.472 4.84224 16.472 4.62849C16.472 4.60175 16.4694 4.57497 16.4645 4.54861C16.2448 3.06361 16.489 2.14829 16.7075 1.89486C16.7874 1.8021 16.8745 1.76255 16.9987 1.76255C18.0119 1.76255 18.0457 3.77837 18.0458 3.79817C18.0458 4.00589 18.1913 4.18508 18.3945 4.22797C18.5981 4.27092 18.8034 4.16551 18.8874 3.97548C19.2016 3.26477 20.0865 1.86269 20.82 2.0659C20.9245 2.09484 20.9913 2.15262 21.0435 2.25903C21.2304 2.64002 21.1304 3.48269 20.803 4.3437C19.6407 5.01185 18.4815 5.86655 17.3823 6.87365C16.3246 6.7961 15.2638 6.7538 14.2028 6.74679C13.5905 4.82705 13.7339 3.36544 14.0502 2.91917ZM9.6543 4.59601H6.98021L6.98051 3.82706H9.65438L9.6543 4.59601ZM6.95093 1.813H9.6837C9.86775 1.813 10.0175 1.96271 10.0175 2.14676V2.94794H6.61718V2.14682C6.61718 1.96277 6.76688 1.813 6.95093 1.813ZM4.038 11.8599C3.81517 10.6765 3.71232 9.39579 3.67089 8.73852C3.65888 8.5415 3.70242 8.351 3.79721 8.1869C4.63545 6.7295 6.25549 5.7122 6.65805 5.4749H9.97635C10.2332 5.62606 10.9869 6.09537 11.7167 6.79475C10.7363 6.83919 9.75765 6.91276 8.78299 7.0175C8.5782 7.03947 8.41616 7.20072 8.39321 7.4054C8.22416 8.91106 8.1315 10.4329 8.11552 11.9361C6.76616 11.9504 5.41841 11.9686 4.07351 11.9914C4.05908 11.9485 4.04655 11.9048 4.038 11.8599ZM2.62068 18.3404C2.62437 18.3405 2.628 18.3408 2.6317 18.3409L2.64576 18.3412C2.84282 18.3448 3.03988 18.348 3.23699 18.3516C3.06085 18.825 2.88594 19.299 2.71309 19.7737C2.67435 19.2383 2.64412 18.7553 2.62068 18.3404ZM22.6215 29.8374H7.3785C5.82656 29.8374 4.42129 28.9059 3.7908 27.5162C4.36811 27.3722 4.86877 26.9567 5.09858 26.3706C5.35185 25.725 5.58195 25.1303 5.80208 24.5525C5.88851 24.3257 5.77474 24.0718 5.5479 23.9853C5.32106 23.899 5.06719 24.0127 4.98075 24.2395C4.7616 24.8147 4.53247 25.4067 4.28029 26.0497C4.09819 26.5142 3.60175 26.7803 3.12443 26.6682C2.82454 26.5982 2.53173 26.4918 2.25469 26.3519C1.81809 26.1308 1.60855 25.6075 1.76723 25.1349C2.89397 21.7819 4.12301 18.4052 5.42018 15.0987C5.60258 14.6341 6.09934 14.3678 6.57536 14.4793C6.87821 14.5504 7.17105 14.657 7.4463 14.7965C7.88299 15.0171 8.09235 15.5402 7.93335 16.0133C7.19595 18.2074 6.411 20.4229 5.60017 22.5983C5.51539 22.8257 5.63104 23.0788 5.85847 23.1636C6.08591 23.2484 6.33896 23.1327 6.42375 22.9053C6.97627 21.4227 7.51643 19.9217 8.03827 18.4214C10.3491 18.4465 12.6743 18.4595 15 18.4595C17.3258 18.4595 19.6513 18.4466 21.9622 18.4214C22.89 21.0888 23.8746 23.7539 24.9013 26.3702C25.1312 26.9563 25.6319 27.3718 26.2093 27.5159C25.5789 28.9057 24.1734 29.8374 22.6215 29.8374ZM27.7456 26.3512C27.4692 26.4908 27.1763 26.5975 26.8749 26.6681C26.3987 26.7797 25.9019 26.5136 25.7196 26.0491C24.4251 22.7501 23.196 19.3734 22.0666 16.0128C21.9076 15.5398 22.1171 15.0167 22.5538 14.796C22.83 14.6564 23.123 14.5497 23.4244 14.4791C23.4975 14.462 23.571 14.4537 23.6438 14.4537C24.0457 14.4537 24.4254 14.7048 24.5798 15.0981C25.8742 18.3971 27.1032 21.7737 28.2327 25.1345C28.3916 25.6074 28.1822 26.1305 27.7456 26.3512ZM26.7633 18.3516C26.9601 18.348 27.1569 18.3448 27.3537 18.3412L27.3694 18.3408C27.3727 18.3408 27.3761 18.3404 27.3794 18.3404C27.3559 18.7551 27.3256 19.238 27.287 19.7731C27.1141 19.2985 26.9393 18.8247 26.7633 18.3516ZM29.0317 16.0613C28.8988 16.7189 28.392 17.2483 27.738 17.4106C27.6147 17.442 27.4844 17.4593 27.3519 17.4621L27.3373 17.4624C27.0369 17.468 26.7366 17.4732 26.4362 17.4783C26.0952 16.5735 25.7492 15.6723 25.3979 14.777C25.0573 13.9087 24.1223 13.4127 23.2239 13.6233C22.8546 13.7099 22.4956 13.8405 22.1572 14.0116C21.3335 14.4279 20.9363 15.4086 21.2334 16.2928C21.3736 16.7102 21.5155 17.1278 21.6587 17.5455C17.2364 17.5914 12.7631 17.5914 8.34075 17.5455C8.48408 17.1277 8.62635 16.7101 8.76634 16.2934C9.06371 15.4089 8.66647 14.4282 7.84294 14.0122C7.50589 13.8414 7.14698 13.7107 6.77595 13.6236C5.87749 13.4132 4.94284 13.9093 4.60185 14.7776C4.25047 15.6732 3.90458 16.5743 3.56384 17.4784C3.26324 17.4733 2.96259 17.468 2.66199 17.4625L2.64904 17.4622C2.51538 17.4594 2.38518 17.442 2.25932 17.41C1.60785 17.2483 1.101 16.7189 0.96804 16.061C0.849266 15.4759 0.849266 14.8826 0.9681 14.2973C1.12936 13.5008 1.83591 12.9116 2.64822 12.8963C10.8442 12.739 19.1556 12.739 27.3517 12.8963C28.1639 12.9116 28.8704 13.5008 29.0317 14.2976C29.1506 14.8825 29.1506 15.4758 29.0317 16.0613Z" fill="#3BB77E"/>
<path d="M9.19058 19.9639H9.16092C8.15445 19.9663 7.34228 20.7607 7.3119 21.7724C7.27624 22.9639 7.27624 24.1723 7.3119 25.3638C7.34228 26.3755 8.15442 27.1699 9.16125 27.1723H9.19058C10.197 27.1699 11.0092 26.3755 11.0396 25.3638C11.0753 24.1723 11.0753 22.9639 11.0396 21.7724C11.0091 20.7606 10.197 19.9663 9.19058 19.9639ZM10.161 25.3375C10.1452 25.8633 9.7089 26.2921 9.18882 26.2933H9.16302C8.64252 26.2921 8.2062 25.8633 8.19045 25.3375C8.15524 24.1634 8.15524 22.9728 8.19045 21.7987C8.2062 21.2728 8.64252 20.8441 9.16332 20.8428H9.1881C9.7086 20.8441 10.1452 21.2728 10.161 21.7987C10.1962 22.9728 10.1962 24.1634 10.161 25.3375Z" fill="#3BB77E"/>
<path d="M15.0148 19.9639H14.9851C13.9787 19.9663 13.1665 20.7607 13.1361 21.7724C13.1005 22.9639 13.1005 24.1723 13.1361 25.3638C13.1665 26.3755 13.9786 27.1699 14.9855 27.1723H15.0148C16.0213 27.1699 16.8334 26.3755 16.8638 25.3638C16.8994 24.1723 16.8994 22.9639 16.8638 21.7724C16.8334 20.7607 16.0213 19.9663 15.0148 19.9639ZM15.9852 25.3375C15.9694 25.8633 15.5332 26.2921 15.0131 26.2933H14.9873C14.4668 26.2921 14.0305 25.8633 14.0147 25.3375C13.9795 24.1634 13.9795 22.9728 14.0147 21.7987C14.0305 21.2728 14.4668 20.8441 14.9876 20.8428H15.0124C15.5329 20.8441 15.9694 21.2728 15.9852 21.7987C16.0204 22.9728 16.0204 24.1634 15.9852 25.3375Z" fill="#3BB77E"/>
<path d="M20.8389 19.9639H20.8093C19.8028 19.9663 18.9907 20.7607 18.9604 21.7724C18.9247 22.9639 18.9247 24.1723 18.9604 25.3638C18.9907 26.3755 19.8028 27.1699 20.8097 27.1723H20.839C21.8455 27.1699 22.6576 26.3755 22.688 25.3638C22.7237 24.1723 22.7237 22.9639 22.688 21.7724C22.6576 20.7607 21.8455 19.9663 20.8389 19.9639ZM21.8094 25.3375C21.7936 25.8633 21.3574 26.2921 20.8372 26.2933H20.8115C20.291 26.2921 19.8547 25.8633 19.839 25.3375C19.8037 24.1634 19.8037 22.9728 19.839 21.7987C19.8547 21.2728 20.291 20.8441 20.8118 20.8428H20.8366C21.3571 20.8441 21.7937 21.2728 21.8095 21.7987C21.8446 22.9728 21.8446 24.1634 21.8094 25.3375Z" fill="#3BB77E"/>
</g>
</g>
</g>
<defs>
<clipPath id="clip0_6511_8093">
<rect width="30" height="30" fill="white" transform="translate(0 0.800049)"/>
</clipPath>
<clipPath id="clip1_6511_8093">
<rect width="30" height="30" fill="white" transform="translate(0 0.800049)"/>
</clipPath>
<clipPath id="clip2_6511_8093">
<rect width="30" height="30" fill="white" transform="translate(0 0.800049)"/>
</clipPath>
</defs>
</svg>
