<svg width="30" height="31" viewBox="0 0 30 31" fill="none" xmlns="http://www.w3.org/2000/svg">
<g clip-path="url(#clip0_6511_8141)">
<g clip-path="url(#clip1_6511_8141)">
<g clip-path="url(#clip2_6511_8141)">
<path d="M10.875 20.675C14.81 20.675 18 17.653 18 13.925C18 10.1971 14.81 7.17505 10.875 7.17505C6.93997 7.17505 3.75 10.1971 3.75 13.925C3.75 17.653 6.93997 20.675 10.875 20.675Z" fill="#FDC040"/>
<path d="M10.9579 21.2343C15.2426 21.2343 18.7284 18.0099 18.7284 14.0465C18.7284 10.0831 15.2426 6.85864 10.9579 6.85864C6.67331 6.85864 3.1875 10.0831 3.1875 14.0465C3.1875 18.0099 6.67331 21.2343 10.9579 21.2343ZM10.9579 7.73839C14.7575 7.73839 17.8487 10.5682 17.8487 14.0465C17.8487 17.5248 14.7575 20.3546 10.9579 20.3546C7.15841 20.3546 4.06725 17.5248 4.06725 14.0465C4.06725 10.5682 7.15841 7.73839 10.9579 7.73839Z" fill="#3BB77E"/>
<path d="M13.3398 12.9311C13.3398 13.6457 13.9212 14.2271 14.6358 14.2271C15.3503 14.2271 15.9317 13.6457 15.9317 12.9311C15.9317 12.2166 15.3503 11.6353 14.6358 11.6353C13.9212 11.6353 13.3398 12.2166 13.3398 12.9311ZM14.6357 12.515C14.8652 12.515 15.0518 12.7017 15.0518 12.9311C15.0518 13.1606 14.8652 13.3473 14.6357 13.3473C14.4062 13.3473 14.2195 13.1606 14.2195 12.9311C14.2195 12.7017 14.4063 12.515 14.6357 12.515Z" fill="#3BB77E"/>
<path d="M12.5381 12.0808C13.2526 12.0808 13.834 11.4995 13.834 10.7849C13.834 10.0704 13.2526 9.48901 12.5381 9.48901C11.8235 9.48901 11.2422 10.0704 11.2422 10.7849C11.2422 11.4995 11.8235 12.0808 12.5381 12.0808ZM12.5381 10.3687C12.7675 10.3687 12.9542 10.5554 12.9542 10.7849C12.9542 11.0143 12.7675 11.201 12.5381 11.201C12.3086 11.201 12.122 11.0143 12.122 10.7849C12.122 10.5554 12.3086 10.3687 12.5381 10.3687Z" fill="#3BB77E"/>
<path d="M7.28417 14.2271C7.99877 14.2271 8.58013 13.6457 8.58013 12.9311C8.58013 12.2166 7.99877 11.6353 7.28417 11.6353C6.56964 11.6353 5.98828 12.2166 5.98828 12.9311C5.98828 13.6457 6.56964 14.2271 7.28417 14.2271ZM7.28417 12.515C7.51367 12.515 7.70038 12.7017 7.70038 12.9311C7.70038 13.1606 7.51367 13.3473 7.28417 13.3473C7.05474 13.3473 6.86807 13.1606 6.86807 12.9311C6.86807 12.7017 7.05474 12.515 7.28417 12.515Z" fill="#3BB77E"/>
<path d="M9.38186 12.0808C10.0964 12.0808 10.6778 11.4995 10.6778 10.7849C10.6778 10.0704 10.0964 9.48901 9.38186 9.48901C8.6673 9.48901 8.08594 10.0704 8.08594 10.7849C8.08594 11.4995 8.6673 12.0808 9.38186 12.0808ZM9.38186 10.3687C9.61129 10.3687 9.79796 10.5554 9.79796 10.7849C9.79796 11.0143 9.61129 11.201 9.38186 11.201C9.1524 11.201 8.96572 11.0143 8.96572 10.7849C8.96572 10.5554 9.1524 10.3687 9.38186 10.3687Z" fill="#3BB77E"/>
<path d="M8.73718 13.8384C8.67605 14.1259 8.5127 14.3889 8.26479 14.599C7.70795 15.0706 7.41695 15.7597 7.46634 16.4893C7.54329 17.6259 8.45923 18.5333 9.5969 18.5998C9.97209 18.6217 10.3487 18.5508 10.6863 18.3943C10.8568 18.3153 11.0605 18.3153 11.2311 18.3943C11.5287 18.5322 11.8566 18.6037 12.187 18.6037C12.2315 18.6037 12.2761 18.6024 12.3205 18.5998C13.4582 18.5332 14.3741 17.6259 14.451 16.4893C14.5004 15.7596 14.2094 15.0706 13.6526 14.599C13.4047 14.3889 13.2413 14.1259 13.1803 13.8384C13.0742 13.3393 12.8097 12.9005 12.4154 12.5695C11.5849 11.8723 10.3324 11.8723 9.50192 12.5695C9.10768 12.9006 8.84327 13.3393 8.73718 13.8384ZM10.0676 13.2433C10.5756 12.8169 11.3417 12.8169 11.8497 13.2433C12.0923 13.4469 12.2548 13.7159 12.3196 14.0212C12.4216 14.5011 12.6859 14.9331 13.0839 15.2702C13.4252 15.5593 13.6035 15.982 13.5732 16.4299C13.5261 17.1255 12.9655 17.6808 12.269 17.7216C12.0352 17.7352 11.8102 17.6931 11.6008 17.596C11.3968 17.5015 11.1777 17.4543 10.9586 17.4543C10.7396 17.4543 10.5205 17.5015 10.3164 17.596C10.1071 17.6931 9.88217 17.7353 9.64828 17.7216C8.95183 17.6808 8.3912 17.1255 8.3441 16.4299C8.31377 15.982 8.49215 15.5593 8.83344 15.2702C9.23143 14.9331 9.49573 14.5012 9.59769 14.0212C9.66264 13.716 9.82509 13.4469 10.0676 13.2433Z" fill="#3BB77E"/>
<path d="M28.2678 24.3504C29.2021 23.1584 29.7162 21.6756 29.7162 20.156C29.7162 16.4017 26.6618 13.3472 22.9074 13.3472C22.2055 13.3472 21.5198 13.4527 20.861 13.6606C20.8136 11.4857 20.7009 9.31382 20.522 7.15352C20.4581 6.38616 20.6255 5.63751 21.0063 4.9885C21.5238 4.10585 21.9872 2.90017 21.2557 2.16861C20.9421 1.8553 20.1383 1.40111 16.7922 1.07559C14.7035 0.872424 12.4099 0.800049 10.96 0.800049C9.50999 0.800049 7.21645 0.872424 5.1277 1.07565C1.78154 1.40116 0.977787 1.85536 0.664122 2.16879C-0.0673143 2.90017 0.396087 4.10585 0.913625 4.98869C1.29433 5.63759 1.46178 6.3862 1.39779 7.15341C1.37298 7.45007 1.3484 7.7659 1.3206 8.1475C1.30289 8.38979 1.485 8.60057 1.72729 8.61824C1.96964 8.63601 2.18037 8.45384 2.19802 8.21155C2.22565 7.83317 2.24993 7.52024 2.2745 7.22669C2.35362 6.2776 2.14541 5.34974 1.67251 4.54357C1.64846 4.50251 1.62594 4.46234 1.60353 4.42222C2.93526 3.86145 7.28425 3.49577 10.96 3.49577C12.3591 3.49577 14.5792 3.56474 16.6142 3.75823C18.8616 3.97196 19.8669 4.23758 20.3151 4.42445C20.2931 4.4638 20.271 4.50322 20.2474 4.54351C19.7745 5.34974 19.5662 6.27752 19.6452 7.22642C20.1013 12.736 20.1253 18.322 19.7192 23.8371C18.7754 23.8369 17.8314 23.8443 16.8924 23.8597C16.7719 22.3633 15.5156 21.1825 13.9887 21.1825C12.3823 21.1825 11.0754 22.4894 11.0754 24.0957C11.0754 24.7975 11.3267 25.4667 11.7769 25.9913C11.6643 26.1225 11.5641 26.2627 11.4773 26.4103C8.84605 26.4296 6.18055 26.3012 3.55069 26.0271C2.86313 25.9558 2.32324 25.4021 2.26694 24.7102C1.86588 19.816 1.80436 14.8511 2.08406 9.95361C2.0979 9.71106 1.91251 9.5032 1.66999 9.48932C1.42752 9.4756 1.21961 9.66089 1.2057 9.9034C0.923652 14.8415 0.985707 19.8473 1.39005 24.7817C1.4806 25.8954 2.35116 26.7871 3.45972 26.902C5.94771 27.1613 8.467 27.2924 10.9609 27.2923C11.0198 27.2923 11.0785 27.2915 11.1373 27.2913C11.0969 27.4854 11.0754 27.6846 11.0754 27.8868C11.0754 29.4931 12.3822 30.8 13.9886 30.8C15.5155 30.8 16.7718 29.6193 16.8923 28.1228C18.7425 28.1532 20.6117 28.1532 22.4614 28.1228C22.5819 29.6192 23.8383 30.8 25.3652 30.8C25.8339 30.8 26.3004 30.6858 26.7142 30.4697C26.9296 30.3573 27.013 30.0915 26.9005 29.8761C26.788 29.6608 26.5222 29.5773 26.307 29.6899C26.0143 29.8427 25.6974 29.9202 25.3652 29.9202C24.2439 29.9202 23.3317 29.008 23.3317 27.8868C23.3317 27.8359 23.3344 27.7804 23.3402 27.7122C23.3507 27.588 23.308 27.4653 23.2229 27.3743C23.1377 27.2834 23.0181 27.2329 22.8934 27.2353C20.7594 27.2761 18.5949 27.2761 16.4604 27.2353C16.3365 27.2329 16.2162 27.2834 16.1309 27.3743C16.0458 27.4653 16.0031 27.588 16.0136 27.7122C16.0194 27.7799 16.0221 27.8355 16.0221 27.8868C16.0221 29.008 15.1099 29.9202 13.9887 29.9202C12.8674 29.9202 11.9552 29.008 11.9552 27.8868C11.9552 27.2846 12.2205 26.7165 12.6832 26.3281C12.7828 26.2445 12.8403 26.1212 12.8403 25.9912C12.8403 25.8612 12.7828 25.7379 12.6832 25.6543C12.2205 25.2659 11.9552 24.6978 11.9552 24.0956C11.9552 22.9744 12.8674 22.0622 13.9887 22.0622C15.1099 22.0622 16.0221 22.9744 16.0221 24.0956C16.0221 24.1469 16.0194 24.2024 16.0136 24.2702C16.0031 24.3944 16.0458 24.5171 16.1309 24.608C16.2162 24.6989 16.3363 24.7498 16.4604 24.7471C18.5949 24.7064 20.7593 24.7064 22.8934 24.7471C23.0182 24.7498 23.1377 24.6989 23.2229 24.608C23.308 24.5171 23.3507 24.3944 23.3402 24.2702C23.3344 24.202 23.3317 24.1465 23.3317 24.0956C23.3317 22.9744 24.2439 22.0622 25.3652 22.0622C26.4867 22.0622 27.3992 22.9744 27.3992 24.0956C27.3992 24.6979 27.1338 25.266 26.6707 25.6541C26.5711 25.7377 26.5135 25.8611 26.5135 25.9912C26.5135 26.1213 26.571 26.2447 26.6707 26.3283C27.1338 26.7164 27.3992 27.2845 27.3992 27.8868C27.3992 28.1436 27.352 28.3937 27.259 28.6302C27.1701 28.8563 27.2813 29.1116 27.5074 29.2006C27.7334 29.2895 27.9888 29.1783 28.0777 28.9522C28.2112 28.6128 28.279 28.2544 28.279 27.8869C28.279 27.1849 28.0276 26.5157 27.5772 25.9912C27.9728 25.5307 28.2147 24.9584 28.2678 24.3504ZM10.9601 2.61595C10.8805 2.61595 3.62025 2.62861 1.24805 3.62633C1.12688 3.23559 1.13556 2.94157 1.28618 2.79096C1.40518 2.67202 2.04008 2.25993 5.2129 1.95125C7.27034 1.75114 9.53069 1.67981 10.96 1.67981C12.3892 1.67981 14.6496 1.75114 16.707 1.95125C19.8798 2.25993 20.5147 2.67202 20.6336 2.79084C20.7844 2.94157 20.7931 3.23553 20.6719 3.62627C18.2997 2.62867 11.0397 2.61595 10.9601 2.61595ZM25.3653 21.1825C23.8384 21.1825 22.582 22.3631 22.4615 23.8596C21.8431 23.8495 21.2224 23.844 20.6011 23.8406C20.8255 20.7683 20.9182 17.6745 20.8773 14.5838C21.5257 14.347 22.2072 14.227 22.9074 14.227C26.1767 14.227 28.8364 16.8868 28.8364 20.156C28.8364 21.1717 28.5729 22.1687 28.0828 23.0465C27.6607 21.9572 26.6021 21.1825 25.3653 21.1825Z" fill="#3BB77E"/>
</g>
</g>
</g>
<defs>
<clipPath id="clip0_6511_8141">
<rect width="30" height="30" fill="white" transform="translate(0 0.800049)"/>
</clipPath>
<clipPath id="clip1_6511_8141">
<rect width="30" height="30" fill="white" transform="translate(0 0.800049)"/>
</clipPath>
<clipPath id="clip2_6511_8141">
<rect width="30" height="30" fill="white" transform="translate(0 0.800049)"/>
</clipPath>
</defs>
</svg>
