<svg width="30" height="31" viewBox="0 0 30 31" fill="none" xmlns="http://www.w3.org/2000/svg">
<g clip-path="url(#clip0_6511_8157)">
<g clip-path="url(#clip1_6511_8157)">
<g clip-path="url(#clip2_6511_8157)">
<path d="M22.125 21.05H15.375C14.1324 21.05 13.125 22.0574 13.125 23.3V27.8C13.125 29.0427 14.1324 30.05 15.375 30.05H22.125C23.3676 30.05 24.375 29.0427 24.375 27.8V23.3C24.375 22.0574 23.3676 21.05 22.125 21.05Z" fill="#FDC040"/>
<path d="M2.25 3.61255L2.625 4.55005L3.75 4.17505L6 3.98755L9.5625 3.80005L13.3125 3.98755L19.6875 4.55005L20.25 3.98755L20.625 3.05005C20.6875 2.80005 20.8125 2.26255 20.8125 2.11255C20.8125 1.96255 20.3125 1.92505 20.0625 1.92505L19.5 2.11255L18.9375 2.30005H17.8125C17.625 2.11255 17.2125 1.73755 17.0625 1.73755C16.9125 1.73755 16.625 1.48755 16.5 1.36255H15.5625L15 1.92505L14.25 2.30005H13.5L12.5625 1.73755L11.625 1.17505L10.6875 1.36255L10.125 1.92505L9.1875 2.30005L8.25 2.11255C8.0625 2.05005 7.65 1.92505 7.5 1.92505C7.35 1.92505 7.18751 1.55005 7.125 1.36255H6.5625L5.8125 1.55005C5.68751 1.67505 5.4 1.92505 5.25 1.92505C5.0625 1.92505 4.6875 2.11255 4.6875 2.30005C4.6875 2.48755 4.125 2.30005 3.9375 2.30005C3.75 2.30005 3.5625 2.30005 3.375 2.11255C3.225 1.96255 2.9375 1.92505 2.8125 1.92505H2.0625L1.875 2.67505L2.25 3.61255Z" fill="#FDC040"/>
<path d="M11.3001 20.0625C13.2883 20.0625 15.1623 19.4815 16.5771 18.4263C18.0304 17.3423 18.8308 15.889 18.8308 14.3342C18.8308 12.7793 18.0304 11.326 16.5771 10.2421C15.1623 9.18694 13.2883 8.60583 11.3001 8.60583C9.31196 8.60583 7.43797 9.18694 6.02321 10.2421C4.56993 11.326 3.76953 12.7793 3.76953 14.3342C3.76953 15.889 4.56989 17.3423 6.02321 18.4263C7.43797 19.4815 9.31196 20.0625 11.3001 20.0625ZM4.64846 14.3342C4.64846 11.6602 7.63241 9.48476 11.3001 9.48476C14.9679 9.48476 17.9518 11.6602 17.9518 14.3342C17.9518 17.0082 14.9679 19.1836 11.3001 19.1836C7.63241 19.1836 4.64846 17.0082 4.64846 14.3342Z" fill="#3BB77E"/>
<path d="M27.8204 26.5649C28.1864 26.2808 28.3855 25.9303 28.3855 25.5471C28.3855 25.164 28.1864 24.8135 27.8204 24.5294C28.1407 24.3073 28.3581 24.0504 28.4698 23.761C28.5671 23.5088 28.6292 23.1025 28.372 22.5991C28.1715 22.2069 27.8541 21.9524 27.4538 21.8631C26.8126 21.72 25.9635 22.0088 24.9253 22.7213C24.4349 21.3858 23.1858 20.4296 21.6889 20.3618C21.3749 20.3476 21.06 20.3365 20.7449 20.3267C21.0477 15.0957 20.9516 9.79607 20.4582 4.56291C20.6206 4.30127 20.9314 3.722 21.1265 2.85855C21.244 2.33881 21.0228 1.82757 20.5632 1.5561C20.1105 1.28885 19.5648 1.341 19.173 1.68905C18.9763 1.86378 18.7904 1.97206 18.472 1.97206C18.0538 1.97206 17.8671 1.78895 17.5844 1.5118C17.261 1.19463 16.8586 0.800049 16.0815 0.800049C15.3044 0.800049 14.902 1.19463 14.5787 1.51168C14.296 1.78884 14.1093 1.97195 13.6912 1.97195C13.2731 1.97195 13.0864 1.78884 12.8037 1.51168C12.4803 1.19463 12.0779 0.800049 11.3008 0.800049C10.5237 0.800049 10.1214 1.19463 9.79812 1.51168C9.51545 1.78884 9.3287 1.97195 8.91061 1.97195C8.49256 1.97195 8.30588 1.78884 8.02313 1.51168C7.69988 1.19463 7.29751 0.800049 6.52043 0.800049C5.7434 0.800049 5.3411 1.19463 5.01781 1.51168C4.73514 1.78884 4.54846 1.97195 4.13052 1.97195C3.81222 1.97195 3.62636 1.86367 3.42972 1.68899C3.03807 1.341 2.49255 1.28879 2.03979 1.55592C1.58011 1.82728 1.35898 2.33846 1.4764 2.8582C1.67152 3.722 1.98248 4.30139 2.14491 4.56295C2.06891 5.36871 2.00071 6.19041 1.94287 7.01035C1.92576 7.25245 2.10817 7.4626 2.35028 7.47962C2.59351 7.4965 2.80252 7.31429 2.81963 7.07215C2.87348 6.30891 2.93594 5.5435 3.00584 4.79166C8.51225 4.12865 14.091 4.12865 19.5977 4.79166C20.076 9.94307 20.1653 15.1578 19.8657 20.3055C18.4766 20.2811 17.0823 20.2991 15.7013 20.3617C14.2043 20.4296 12.9552 21.3857 12.4648 22.7212C11.4266 22.0087 10.5775 21.7198 9.93631 21.863C9.53607 21.9523 9.2186 22.2068 9.01816 22.5991C8.76098 23.1024 8.82301 23.5087 8.92029 23.7609C9.00248 23.974 9.14255 24.1693 9.3383 24.3463C7.23545 24.2869 5.11006 24.1299 3.00584 23.8763C2.54148 18.8757 2.44228 13.8116 2.71111 8.81924C2.72418 8.57687 2.53825 8.3698 2.29591 8.35679C2.05209 8.34344 1.84654 8.52966 1.83342 8.77199C1.55872 13.8729 1.6656 19.0473 2.14971 24.1547C1.98858 24.4126 1.6734 24.9947 1.47658 25.8664C1.35892 26.3863 1.58005 26.8977 2.03991 27.1692C2.49249 27.4365 3.03825 27.3841 3.42972 27.0363C3.62665 26.8615 3.81264 26.7532 4.13064 26.7532C4.54884 26.7532 4.73562 26.9363 5.01834 27.2136C5.34174 27.5306 5.74415 27.9251 6.52126 27.9251C7.29845 27.9251 7.70086 27.5306 8.02426 27.2136C8.30693 26.9363 8.4938 26.7532 8.91192 26.7532C9.05367 26.7532 9.16899 26.7748 9.26971 26.8132C9.10962 26.9726 8.99236 27.1461 8.92013 27.3333C8.82286 27.5856 8.7608 27.9919 9.01797 28.4953C9.21841 28.8874 9.53588 29.1419 9.93616 29.2313C10.0427 29.2551 10.1549 29.2669 10.2728 29.2669C10.8646 29.2669 11.5989 28.9666 12.4644 28.3726C12.9547 29.7084 14.204 30.6647 15.7011 30.7325C16.6944 30.7775 17.6946 30.8 18.695 30.8C19.6952 30.8 20.6956 30.7775 21.6888 30.7325C23.1858 30.6646 24.435 29.7084 24.9253 28.3726C25.7908 28.9666 26.5252 29.2669 27.1169 29.2669C27.2348 29.2669 27.3471 29.255 27.4536 29.2312C27.8539 29.1419 28.1714 28.8874 28.3718 28.4951C28.629 27.9918 28.5669 27.5856 28.4696 27.3333C28.3582 27.0439 28.1407 26.7869 27.8204 26.5649ZM2.79561 3.93236C2.66043 3.6818 2.46694 3.2543 2.3337 2.66454C2.28536 2.45049 2.43859 2.34115 2.48664 2.3128C2.5447 2.27852 2.69611 2.21295 2.84605 2.34613C3.11061 2.5811 3.4957 2.85087 4.13052 2.85087C4.90752 2.85087 5.30986 2.45629 5.63319 2.13923C5.91579 1.86208 6.10254 1.67897 6.52047 1.67897C6.93849 1.67897 7.1252 1.86208 7.40791 2.13923C7.73112 2.45629 8.13353 2.85087 8.91061 2.85087C9.68772 2.85087 10.0901 2.45629 10.4134 2.13923C10.6961 1.86208 10.8828 1.67897 11.3008 1.67897C11.7189 1.67897 11.9057 1.86208 12.1883 2.13923C12.5117 2.45629 12.9141 2.85087 13.6912 2.85087C14.4683 2.85087 14.8707 2.45629 15.194 2.13923C15.4766 1.86208 15.6634 1.67897 16.0815 1.67897C16.4997 1.67897 16.6864 1.86208 16.9691 2.13923C17.2925 2.45629 17.6949 2.85087 18.4721 2.85087C19.1069 2.85087 19.4921 2.58116 19.7567 2.34613C19.9065 2.21301 20.0582 2.27846 20.1163 2.31285C20.1644 2.34127 20.3177 2.45061 20.2692 2.66471C20.136 3.25465 19.9424 3.68222 19.8076 3.9323C14.1615 3.24392 8.44104 3.24392 2.79561 3.93236ZM21.1631 29.8737C20.5713 29.896 19.9778 29.911 19.3835 29.9172C19.6462 27.9894 20.1338 26.0432 20.8365 24.1245C20.9199 23.8966 20.8029 23.6442 20.5749 23.5607C20.3469 23.4773 20.0947 23.5944 20.0111 23.8223C19.2721 25.8405 18.7631 27.8899 18.4959 29.92C17.9052 29.9181 17.3148 29.9083 16.7259 29.8906C17.3215 25.559 18.9102 22.229 19.4589 21.1777C20.0119 21.1841 20.5641 21.1982 21.1148 21.2185C20.9877 21.4781 20.8381 21.7965 20.6759 22.167C20.5786 22.3893 20.6798 22.6485 20.9022 22.7458C20.9595 22.771 21.0193 22.7828 21.0782 22.7828C21.2475 22.7828 21.4088 22.6845 21.481 22.5195C21.7125 21.9907 21.9165 21.5736 22.062 21.2896C22.5825 21.3918 23.0482 21.6388 23.4164 21.9874C22.7183 23.5503 21.6258 26.4144 21.1631 29.8737ZM7.40907 26.5858C7.12636 26.863 6.9395 27.0462 6.52137 27.0462C6.10321 27.0462 5.91642 26.8631 5.63375 26.5859C5.31031 26.2688 4.9079 25.8743 4.13075 25.8743C3.49652 25.8743 3.11131 26.1439 2.84623 26.379C2.69634 26.5121 2.54494 26.4467 2.48693 26.4124C2.43876 26.3839 2.28548 26.2745 2.334 26.0601C2.4772 25.4258 2.69043 24.9788 2.82555 24.7386C4.89507 24.9902 6.98547 25.1518 9.05618 25.2181C9.02247 25.3244 9.00473 25.4343 9.00473 25.5472C9.00473 25.6612 9.02277 25.7723 9.05723 25.8797C9.01017 25.8765 8.96213 25.8743 8.91215 25.8743C8.13488 25.8743 7.73247 26.2688 7.40907 26.5858ZM10.1278 28.3735C10.0307 28.3518 9.90575 28.3006 9.80086 28.0953C9.68221 27.863 9.70943 27.7297 9.74037 27.6496C9.83138 27.4138 10.1633 27.1771 10.6749 26.9832C10.8473 26.9179 10.9606 26.752 10.9587 26.5676C10.9568 26.3833 10.84 26.2198 10.6662 26.1581C10.1285 25.9672 9.88366 25.7076 9.88366 25.5471C9.88366 25.3866 10.1286 25.1269 10.6662 24.9361C10.84 24.8744 10.9568 24.7109 10.9587 24.5265C10.9606 24.3422 10.8473 24.1762 10.6749 24.111C10.1633 23.9171 9.83138 23.6805 9.74037 23.4446C9.70951 23.3645 9.68221 23.2312 9.80086 22.999C9.90575 22.7936 10.0307 22.7424 10.1278 22.7207C10.3348 22.6745 10.946 22.6805 12.2568 23.6524C12.2529 23.6965 12.249 23.7405 12.2467 23.7851C12.185 24.9542 12.185 26.1398 12.2467 27.3089C12.249 27.3535 12.2529 27.3976 12.2568 27.4416C10.9461 28.4135 10.3351 28.4196 10.1278 28.3735ZM13.1243 23.8315C13.1988 22.4182 14.3238 21.304 15.741 21.2398C15.7556 21.2392 15.7702 21.2388 15.7847 21.2381C15.1817 22.4772 14.0558 25.0825 13.4241 28.376C13.2513 28.0404 13.1454 27.6637 13.1243 27.2629C13.0643 26.1244 13.0643 24.9699 13.1243 23.8315ZM14.1586 29.2667C14.8103 25.2612 16.2782 22.1813 16.7859 21.2019C17.3482 21.1855 17.9118 21.1762 18.4757 21.1744C17.7821 22.5843 16.3872 25.8066 15.8434 29.8585C15.8093 29.8571 15.7751 29.856 15.741 29.8545C15.1422 29.8274 14.5959 29.6122 14.1586 29.2667ZM24.2658 27.2628C24.1987 28.5363 23.2784 29.5666 22.0601 29.8049C22.4769 26.8556 23.3579 24.3674 24.014 22.817C24.1583 23.1272 24.2467 23.4694 24.2658 23.8314C24.3258 24.9699 24.3258 26.1244 24.2658 27.2628ZM27.5893 28.0952C27.4844 28.3006 27.3594 28.3518 27.2624 28.3735C27.0553 28.4196 26.4441 28.4136 25.1334 27.4418C25.1373 27.3977 25.1412 27.3536 25.1435 27.3091C25.2052 26.1399 25.2052 24.9543 25.1435 23.7852C25.1412 23.7406 25.1373 23.6966 25.1334 23.6525C26.444 22.6807 27.0551 22.6746 27.2624 22.7209C27.3594 22.7425 27.4844 22.7938 27.5893 22.999C27.708 23.2313 27.6807 23.3646 27.6497 23.4446C27.5588 23.6805 27.2268 23.9171 26.7152 24.111C26.5429 24.1763 26.4296 24.3422 26.4314 24.5266C26.4334 24.7109 26.5502 24.8744 26.7239 24.9361C27.2616 25.127 27.5065 25.3867 27.5065 25.5471C27.5065 25.7076 27.2616 25.9673 26.7239 26.1581C26.5502 26.2198 26.4334 26.3833 26.4314 26.5677C26.4295 26.752 26.5428 26.918 26.7152 26.9833C27.2268 27.1771 27.5588 27.4138 27.6498 27.6497C27.6806 27.7297 27.708 27.863 27.5893 28.0952Z" fill="#3BB77E"/>
<path d="M8.36066 12.8837C10.3119 12.6246 12.2903 12.6246 14.2413 12.8837C14.261 12.8863 14.2805 12.8876 14.2998 12.8876C14.5167 12.8876 14.7055 12.727 14.7348 12.506C14.7668 12.2654 14.5977 12.0445 14.3571 12.0125C12.3294 11.7432 10.2729 11.7432 8.24494 12.0125C8.00434 12.0445 7.83518 12.2654 7.86716 12.506C7.89915 12.7466 8.12006 12.9156 8.36066 12.8837Z" fill="#3BB77E"/>
<path d="M14.7348 16.2769C14.7029 16.0363 14.4818 15.8673 14.2413 15.8991C12.2903 16.1583 10.3119 16.1583 8.36066 15.8991C8.12018 15.8672 7.89911 16.0363 7.86716 16.2769C7.83518 16.5175 8.00434 16.7384 8.24494 16.7704C9.25886 16.905 10.2799 16.9724 11.301 16.9724C12.3221 16.9724 13.3431 16.905 14.357 16.7704C14.5977 16.7384 14.7668 16.5175 14.7348 16.2769Z" fill="#3BB77E"/>
<path d="M15.9244 14.3914C15.9244 14.1487 15.7276 13.9519 15.4849 13.9519H7.11524C6.87251 13.9519 6.67578 14.1487 6.67578 14.3914C6.67578 14.6341 6.87251 14.8308 7.11524 14.8308H15.4849C15.7276 14.8308 15.9244 14.6341 15.9244 14.3914Z" fill="#3BB77E"/>
</g>
</g>
</g>
<defs>
<clipPath id="clip0_6511_8157">
<rect width="30" height="30" fill="white" transform="translate(0 0.800049)"/>
</clipPath>
<clipPath id="clip1_6511_8157">
<rect width="30" height="30" fill="white" transform="translate(0 0.800049)"/>
</clipPath>
<clipPath id="clip2_6511_8157">
<rect width="30" height="30" fill="white" transform="translate(0 0.800049)"/>
</clipPath>
</defs>
</svg>
