<svg width="117" height="88" viewBox="0 0 117 88" fill="none" xmlns="http://www.w3.org/2000/svg">
<g clip-path="url(#clip0_6511_694)">
<g clip-path="url(#clip1_6511_694)">
<g clip-path="url(#clip2_6511_694)">
<g clip-path="url(#clip3_6511_694)">
<mask id="mask0_6511_694" style="mask-type:luminance" maskUnits="userSpaceOnUse" x="18" y="0" width="81" height="81">
<path d="M98.4375 0.876465H18.4375V80.8765H98.4375V0.876465Z" fill="white"/>
</mask>
<g mask="url(#mask0_6511_694)">
<path d="M40.9375 57.8765C38.5375 57.4765 37.2708 58.3765 36.9375 58.8765L36.4375 59.3765C35.9375 60.0432 34.9375 61.4765 34.9375 61.8765V64.8765C34.9375 65.3765 34.9375 66.8765 35.4375 67.8765C35.9375 68.8765 35.9375 69.3765 36.4375 69.8765C36.9375 70.3765 37.4375 70.8765 37.9375 70.8765C38.4375 70.8765 40.9375 71.3765 41.4375 71.3765H46.9375C48.4375 71.3765 48.9375 70.8765 49.9375 70.8765C50.9375 70.8765 51.9375 70.3765 51.9375 69.8765C51.9375 69.3765 52.4375 68.8765 52.9375 68.3765C53.4375 67.8765 52.9375 66.8765 53.4375 66.0519C53.9375 65.2272 53.4375 64.8765 53.4375 64.3765V61.8765C53.4375 61.3765 52.9375 60.8765 52.9375 60.3765C52.9375 59.8765 51.9375 59.3765 51.4375 58.8765C51.0375 58.4765 49.9375 58.0432 49.4375 57.8765C47.6042 58.0432 43.3375 58.2765 40.9375 57.8765Z" fill="#FDC040"/>
<path d="M85.4375 31.8765C78.2375 34.6765 64.4375 33.0432 58.4375 31.8765L56.9375 32.8765L54.4375 36.8765L52.9375 40.3765C54.5375 40.7765 59.2708 44.8765 61.4375 46.8765L62.9375 49.8765C66.5375 50.2765 67.4375 53.3765 67.4375 54.8765L67.9375 65.3765C74.7375 67.3765 90.4375 64.2098 97.4375 62.3765C97.8375 61.5765 96.2708 53.0432 95.4375 48.8765C93.4375 42.8765 87.9375 35.0432 85.4375 31.8765Z" fill="#FDC040"/>
<path d="M92.5329 39.7943C90.1448 35.4296 87.7708 32.6091 86.9157 31.6542V25.212L98.0098 16.1025C98.2739 15.8854 98.4303 15.564 98.4377 15.2221C98.4452 14.8802 98.3028 14.5523 98.0483 14.3241L89.6542 6.80035C89.1723 6.36845 88.4313 6.40908 87.9993 6.89082C87.5672 7.37271 87.6079 8.11368 88.0898 8.54573L95.4668 15.1579L86.9161 22.179V17.3863C86.9161 16.7391 86.3916 16.2143 85.7442 16.2143C85.0968 16.2143 84.5723 16.7391 84.5723 17.3863L84.5717 31.1207C76.204 32.475 67.7352 32.4748 59.3676 31.1204V17.3863C59.3676 16.7391 58.843 16.2143 58.1956 16.2143C57.5483 16.2143 57.0237 16.7391 57.0237 17.3863V22.1794L48.4724 15.1579L57.5951 6.97988C58.9372 5.7764 60.6704 5.27622 62.3383 5.47436C62.6817 6.94973 63.4705 10.0444 64.6818 13.1274C66.6722 18.1933 68.9939 21.2219 71.5821 22.1286C71.7076 22.1725 71.8385 22.1946 71.9695 22.1946C72.1004 22.1946 72.2315 22.1725 72.3568 22.1286C74.945 21.2219 77.2668 18.1933 79.2577 13.1275C80.467 10.0503 81.2548 6.96379 81.5997 5.48483C82.6322 5.36138 83.6985 5.49951 84.6898 5.92391C85.2853 6.17876 85.9738 5.90265 86.2285 5.30779C86.4833 4.71276 86.2074 4.02399 85.6125 3.76929C82.6019 2.48033 79.0921 3.07239 76.67 5.277L75.5885 6.26142C73.5251 8.14024 70.4146 8.14024 68.352 6.26142L67.2707 5.277C64.0774 2.37002 59.245 2.35205 56.0304 5.23497L45.8908 14.3244C45.6361 14.5526 45.4939 14.8807 45.5014 15.2224C45.5087 15.5643 45.6651 15.8857 45.9292 16.1028L57.0234 25.2124V31.6535C56.2551 32.5086 54.2806 34.8435 52.1762 38.424C50.3939 37.4742 48.509 36.5365 46.5997 35.5873C44.9312 34.7576 43.2507 33.9219 41.6375 33.0733C43.2141 31.099 44.4303 28.8642 44.9632 26.2443C45.7776 22.2405 44.5863 18.6641 41.6948 16.432C38.9536 14.316 35.1786 13.8443 32.3009 15.2582C30.7583 16.0161 28.1705 17.983 28.1705 22.6401C28.1705 25.588 30.0427 28.3748 33.8942 31.1599C35.0989 32.0311 36.4534 32.8748 37.895 33.6982C36.1077 35.4562 34.0566 37.0209 32.1188 38.4988C27.9469 41.6808 23.9888 44.7022 23.8865 48.773C21.3342 49.3849 19.3649 51.5132 19.0221 54.194C18.2426 60.2973 18.2426 66.4866 19.0221 72.5903C19.4158 75.6678 21.9542 78.0197 25.0581 78.1824C31.2815 78.5069 37.5486 78.6691 43.8159 78.6691C50.083 78.6691 56.3506 78.5068 62.5741 78.1824C65.6787 78.0196 68.2163 75.6675 68.6082 72.5903C68.8417 70.7655 69.0037 68.933 69.0976 67.0974C70.0511 67.126 71.0125 67.1413 71.9695 67.1413C87.2685 67.1413 97.2501 63.5617 97.6676 63.4093C98.13 63.2404 98.4377 62.8007 98.4377 62.3085C98.438 52.6203 95.2269 44.7178 92.5329 39.7943ZM66.7741 7.99367C69.7355 10.6921 74.2036 10.6921 77.1668 7.99399L78.2481 7.00973C78.4678 6.80972 78.7002 6.62831 78.9425 6.46549C78.5355 8.01805 77.9111 10.147 77.0768 12.2698C75.1233 17.2408 73.2789 19.1035 71.9699 19.7521C70.6611 19.1035 68.8167 17.2408 66.8636 12.2698C66.0295 10.1467 65.405 8.01633 64.9979 6.46314C65.2392 6.62612 65.4717 6.808 65.6933 7.00957L66.7741 7.99367ZM30.515 22.6394C30.515 20.0928 31.4901 18.2676 33.335 17.3611C34.1066 16.982 34.9883 16.7981 35.8959 16.7981C37.4125 16.7981 39.0007 17.312 40.2632 18.2866C41.5309 19.2651 43.5288 21.5394 42.6671 25.7763C42.1947 28.0989 41.039 30.1194 39.5308 31.9309C34.4658 29.0925 30.515 26.0791 30.515 22.6394ZM25.1803 50.9432C27.2692 50.8348 29.359 50.7441 31.3916 50.6738C32.0385 50.6513 32.5446 50.109 32.5221 49.4621C32.4996 48.815 31.9613 48.3109 31.3104 48.3314C29.6528 48.3887 27.9572 48.4601 26.2553 48.543C26.5572 45.6907 29.8214 43.1985 33.5408 40.3619C35.7257 38.6952 38.0452 36.9261 40.0388 34.8774C41.8347 35.8345 43.7098 36.767 45.5565 37.6853C47.4051 38.6046 49.2686 39.5314 51.036 40.4744C49.875 42.6802 48.7332 45.2472 47.7882 48.1392C43.8459 48.0953 39.9101 48.1123 36.0037 48.1981C35.3565 48.2123 34.8435 48.7483 34.8577 49.3955C34.8719 50.0427 35.4052 50.561 36.0549 50.5413C44.7912 50.3496 53.6726 50.4849 62.4525 50.9432C64.4238 51.0454 66.0352 52.537 66.2839 54.4905C66.4485 55.7767 66.575 57.0669 66.6678 58.3593C66.5731 59.6562 66.4445 60.9438 66.2839 62.1894C66.0353 64.1414 64.4235 65.6322 62.4506 65.7346C59.7971 65.8732 57.1314 65.9811 54.5033 66.06C54.5596 64.4051 54.5231 62.7434 54.3905 61.0978C54.2113 58.8721 52.4057 57.1022 50.1909 56.9811C46.3988 56.7736 42.5533 56.7734 38.7621 56.9811C36.5471 57.1022 34.7417 58.8721 34.5624 61.0978C34.4288 62.7559 34.3927 64.4305 34.4508 66.098C31.3646 66.0158 28.2532 65.8955 25.1803 65.7346C23.208 65.6324 21.5961 64.1415 21.3476 62.189C21.1904 60.958 21.0615 59.6746 20.9634 58.3733C21.0562 57.0763 21.1828 55.7814 21.3476 54.4905C21.5973 52.5373 23.2092 51.0454 25.1803 50.9432ZM53.0984 41.6113C56.895 43.7839 59.9626 46.0566 60.9934 48.5275C57.4204 48.3569 53.8342 48.2386 50.2491 48.1743C51.0939 45.7278 52.0881 43.5282 53.0984 41.6113ZM52.0541 67.8742C51.9685 68.9369 51.1124 69.7814 50.0628 69.8389C46.3559 70.0418 42.5971 70.0418 38.8899 69.8389C37.8403 69.7814 36.9842 68.9369 36.8985 67.8742C36.7224 65.6885 36.7224 63.4718 36.8985 61.2861C36.9842 60.2234 37.8403 59.3788 38.89 59.3213C40.7434 59.2199 42.6099 59.1692 44.4763 59.1692C46.3428 59.1692 48.2093 59.2199 50.0628 59.3213C51.1124 59.3788 51.9685 60.2234 52.0541 61.2861C52.2302 63.4718 52.2302 65.6885 52.0541 67.8742ZM62.4522 75.8412C50.0862 76.4859 37.5465 76.4859 25.181 75.8412C23.2097 75.7378 21.5973 74.2454 21.3476 72.2926C21.0892 70.2685 20.9213 68.2345 20.8401 66.1976C21.9317 67.292 23.4157 67.9901 25.0584 68.0753C28.2243 68.2412 31.4316 68.3644 34.6106 68.447C34.9543 70.489 36.6764 72.0653 38.7619 72.1793C40.6579 72.2831 42.5672 72.335 44.4763 72.335C46.3855 72.335 48.2949 72.2831 50.1906 72.1793C52.289 72.0645 54.0189 70.4696 54.3477 68.4097C57.0657 68.3298 59.8259 68.2189 62.5722 68.0753C64.2159 67.9901 65.7005 67.2915 66.7922 66.1968C66.7108 68.234 66.5427 70.2685 66.2838 72.2931C66.035 74.2457 64.4235 75.7378 62.4522 75.8412ZM92.2479 62.5133C92.0068 58.9902 91.5613 55.4799 90.9191 52.0589C90.7997 51.4228 90.1878 51.0041 89.5511 51.1234C88.915 51.2427 88.496 51.8553 88.6156 52.4914C89.2623 55.937 89.7025 59.4764 89.9312 63.0266C89.0289 63.2115 88.0057 63.4035 86.8733 63.5904C86.7316 58.8774 86.2286 54.1846 85.3726 49.621C85.2533 48.9848 84.6407 48.5662 84.0048 48.6851C83.3686 48.8045 82.9497 49.4169 83.0691 50.053C83.9196 54.5887 84.4132 59.2562 84.5393 63.9429C81.045 64.4225 76.7776 64.7972 71.9696 64.7972C71.04 64.7972 70.1061 64.7825 69.1798 64.7548C69.2461 61.2278 69.0565 57.6968 68.6085 54.1943C68.2571 51.4346 66.1813 49.2608 63.5193 48.7234C62.6589 45.1424 58.9822 42.2657 54.2431 39.5612C56.1162 36.3909 57.8686 34.2524 58.6338 33.375C63.0602 34.1116 67.5152 34.481 71.9702 34.481C76.4249 34.481 80.8796 34.1118 85.3059 33.3752C86.1853 34.3808 88.3621 37.0397 90.5149 40.99C92.9815 45.5161 95.9073 52.6901 96.0852 61.4658C95.323 61.7063 94.0161 62.0911 92.2479 62.5133Z" fill="#3BB77E"/>
<path d="M49.1787 61.0988C47.6133 61.0256 46.0312 60.9885 44.476 60.9885C42.9206 60.9885 41.3384 61.0256 39.773 61.0988C39.1752 61.1268 38.6945 61.6007 38.658 62.1983C38.5619 63.7786 38.5619 65.3815 38.658 66.962C38.6944 67.5596 39.1752 68.0335 39.773 68.0615C41.3371 68.1346 42.9195 68.1718 44.476 68.1718C46.0323 68.1718 47.6146 68.1347 49.1787 68.0615C49.7765 68.0335 50.2572 67.5596 50.2937 66.962C50.3898 65.3815 50.3898 63.7788 50.2937 62.1983C50.2573 61.6009 49.7767 61.1268 49.1787 61.0988ZM48.0032 65.7643C45.6476 65.8489 43.3041 65.8489 40.9488 65.7643C40.9237 64.976 40.9237 64.1844 40.9488 63.3961C43.3056 63.3114 45.6464 63.3114 48.0032 63.3961C48.0283 64.1844 48.0283 64.976 48.0032 65.7643Z" fill="#3BB77E"/>
</g>
</g>
</g>
</g>
</g>
<defs>
<clipPath id="clip0_6511_694">
<rect width="116" height="87" fill="white" transform="translate(0.4375 0.876465)"/>
</clipPath>
<clipPath id="clip1_6511_694">
<rect x="18.4375" y="0.876465" width="80" height="80" rx="10" fill="white"/>
</clipPath>
<clipPath id="clip2_6511_694">
<rect width="80" height="80" fill="white" transform="translate(18.4375 0.876465)"/>
</clipPath>
<clipPath id="clip3_6511_694">
<rect width="80" height="80" fill="white" transform="translate(18.4375 0.876465)"/>
</clipPath>
</defs>
</svg>
