<svg width="117" height="88" viewBox="0 0 117 88" fill="none" xmlns="http://www.w3.org/2000/svg">
<g clip-path="url(#clip0_6511_722)">
<g clip-path="url(#clip1_6511_722)">
<g clip-path="url(#clip2_6511_722)">
<g clip-path="url(#clip3_6511_722)">
<path d="M77.4375 54.8765H59.4375C56.1238 54.8765 53.4375 57.5628 53.4375 60.8765V72.8765C53.4375 76.1902 56.1238 78.8765 59.4375 78.8765H77.4375C80.7512 78.8765 83.4375 76.1902 83.4375 72.8765V60.8765C83.4375 57.5628 80.7512 54.8765 77.4375 54.8765Z" fill="#FDC040"/>
<path d="M24.4375 8.37646L25.4375 10.8765L28.4375 9.87646L34.4375 9.37646L43.9375 8.87646L53.9375 9.37646L70.9375 10.8765L72.4375 9.37646L73.4375 6.87646C73.6042 6.20979 73.9375 4.77646 73.9375 4.37646C73.9375 3.97646 72.6042 3.87646 71.9375 3.87646L70.4375 4.37646L68.9375 4.87646H65.9375C65.4375 4.37646 64.3375 3.37646 63.9375 3.37646C63.5375 3.37646 62.7708 2.70979 62.4375 2.37646H59.9375L58.4375 3.87646L56.4375 4.87646H54.4375L51.9375 3.37646L49.4375 1.87646L46.9375 2.37646L45.4375 3.87646L42.9375 4.87646L40.4375 4.37646C39.9375 4.20979 38.8375 3.87646 38.4375 3.87646C38.0375 3.87646 37.6042 2.87646 37.4375 2.37646H35.9375L33.9375 2.87646C33.6042 3.20979 32.8375 3.87646 32.4375 3.87646C31.9375 3.87646 30.9375 4.37646 30.9375 4.87646C30.9375 5.37646 29.4375 4.87646 28.9375 4.87646C28.4375 4.87646 27.9375 4.87646 27.4375 4.37646C27.0375 3.97646 26.2708 3.87646 25.9375 3.87646H23.9375L23.4375 5.87646L24.4375 8.37646Z" fill="#FDC040"/>
<path d="M48.5757 52.2431C53.8776 52.2431 58.8748 50.6936 62.6476 47.8798C66.5231 44.9892 68.6574 41.1138 68.6574 36.9675C68.6574 32.8212 66.5231 28.9458 62.6476 26.0553C58.8748 23.2415 53.8776 21.6919 48.5757 21.6919C43.2739 21.6919 38.2766 23.2415 34.5039 26.0553C30.6285 28.9458 28.4941 32.8212 28.4941 36.9675C28.4941 41.1138 30.6284 44.9892 34.5039 47.8798C38.2766 50.6936 43.2739 52.2431 48.5757 52.2431ZM30.8379 36.9675C30.8379 29.8369 38.7951 24.0357 48.5757 24.0357C58.3564 24.0357 66.3136 29.8369 66.3136 36.9675C66.3136 44.0981 58.3564 49.8993 48.5757 49.8993C38.7951 49.8993 30.8379 44.0981 30.8379 36.9675Z" fill="#3BB77E"/>
<path d="M92.6264 69.5827C93.6024 68.8253 94.1335 67.8906 94.1335 66.8687C94.1335 65.847 93.6025 64.9123 92.6264 64.1549C93.4807 63.5626 94.0605 62.8774 94.3582 62.1058C94.6177 61.4332 94.7832 60.3497 94.0974 59.0073C93.5628 57.9615 92.7163 57.2829 91.6489 57.0446C89.939 56.6631 87.6749 57.4331 84.9063 59.3333C83.5986 55.7718 80.2676 53.2221 76.2758 53.0413C75.4384 53.0033 74.5989 52.9736 73.7584 52.9477C74.5659 38.9982 74.3098 24.8659 72.994 10.9108C73.4271 10.2131 74.2559 8.66833 74.7761 6.36579C75.0894 4.97982 74.4995 3.61651 73.2739 2.89259C72.0668 2.17992 70.6116 2.31899 69.5668 3.24713C69.0422 3.71308 68.5466 4.00183 67.6975 4.00183C66.5823 4.00183 66.0843 3.51354 65.3306 2.77447C64.4682 1.92867 63.3951 0.876465 61.3227 0.876465C59.2505 0.876465 58.1775 1.92867 57.3153 2.77415C56.5615 3.51323 56.0635 4.00152 54.9487 4.00152C53.8336 4.00152 53.3358 3.51323 52.5821 2.77415C51.7197 1.92867 50.6465 0.876465 48.5743 0.876465C46.5021 0.876465 45.4291 1.92867 44.5671 2.77415C43.8133 3.51323 43.3153 4.00152 42.2004 4.00152C41.0856 4.00152 40.5878 3.51323 39.8338 2.77415C38.9718 1.92867 37.8988 0.876465 35.8266 0.876465C33.7545 0.876465 32.6817 1.92867 31.8196 2.77415C31.0658 3.51323 30.568 4.00152 29.4535 4.00152C28.6047 4.00152 28.1091 3.71277 27.5847 3.24698C26.5403 2.31899 25.0856 2.17977 23.8782 2.89212C22.6524 3.61573 22.0627 4.97888 22.3759 6.36485C22.8962 8.66833 23.7254 10.2134 24.1586 10.9109C23.9559 13.0596 23.774 15.2508 23.6198 17.4373C23.5742 18.0829 24.0606 18.6433 24.7062 18.6887C25.3548 18.7337 25.9122 18.2478 25.9578 17.6021C26.1014 15.5668 26.268 13.5257 26.4544 11.5208C41.1381 9.75274 56.0148 9.75274 70.6993 11.5208C71.9748 25.2579 72.2129 39.1638 71.4141 52.8911C67.7097 52.826 63.9915 52.8741 60.3088 53.041C56.317 53.2219 52.986 55.7715 51.6783 59.333C48.9098 57.4328 46.6454 56.6626 44.9356 57.0443C43.8683 57.2826 43.0217 57.9612 42.4872 59.0072C41.8014 60.3494 41.9668 61.4328 42.2262 62.1055C42.4454 62.6738 42.8189 63.1946 43.3409 63.6665C37.7333 63.508 32.0656 63.0894 26.4544 62.4132C25.2161 49.0782 24.9515 35.5741 25.6684 22.261C25.7033 21.6147 25.2075 21.0625 24.5612 21.0278C23.911 20.9922 23.3629 21.4888 23.3279 22.135C22.5954 35.7375 22.8804 49.5359 24.1714 63.1555C23.7417 63.8432 22.9012 65.3956 22.3763 67.72C22.0626 69.1064 22.6523 70.4702 23.8785 71.1943C25.0854 71.9071 26.5408 71.7674 27.5847 70.8397C28.1099 70.3738 28.6058 70.085 29.4538 70.085C30.569 70.085 31.0671 70.5733 31.821 71.3126C32.6834 72.1581 33.7565 73.2101 35.8288 73.2101C37.9013 73.2101 38.9744 72.1579 39.8368 71.3126C40.5906 70.5733 41.0889 70.085 42.2039 70.085C42.5819 70.085 42.8894 70.1425 43.158 70.2449C42.7311 70.6701 42.4184 71.1326 42.2258 71.6319C41.9664 72.3046 41.8009 73.3881 42.4867 74.7304C43.0212 75.7762 43.8678 76.4549 44.9352 76.6931C45.2193 76.7566 45.5185 76.7881 45.833 76.7881C47.411 76.7881 49.3693 75.9873 51.6773 74.4034C52.9847 77.9655 56.316 80.5156 60.3083 80.6963C62.9573 80.8163 65.6245 80.8763 68.2922 80.8763C70.9593 80.8763 73.627 80.8163 76.2755 80.6963C80.2677 80.5154 83.5989 77.9654 84.9063 74.4032C87.2143 75.9873 89.1726 76.788 90.7506 76.788C91.065 76.788 91.3645 76.7563 91.6484 76.693C92.7158 76.4547 93.5624 75.7761 94.0969 74.7301C94.7827 73.3879 94.6172 72.3045 94.3577 71.6318C94.0605 70.8601 93.4807 70.1749 92.6264 69.5827ZM25.8937 9.22929C25.5333 8.56115 25.0173 7.42112 24.662 5.84843C24.5331 5.27765 24.9417 4.98607 25.0698 4.91045C25.2247 4.81904 25.6284 4.64419 26.0283 4.99935C26.7338 5.62593 27.7607 6.34532 29.4535 6.34532C31.5255 6.34532 32.5984 5.29311 33.4606 4.44762C34.2142 3.70855 34.7122 3.22026 35.8267 3.22026C36.9414 3.22026 37.4393 3.70855 38.1932 4.44762C39.0551 5.29311 40.1282 6.34532 42.2004 6.34532C44.2727 6.34532 45.3458 5.29311 46.2079 4.44762C46.9616 3.70855 47.4596 3.22026 48.5743 3.22026C49.6892 3.22026 50.1872 3.70855 50.9409 4.44762C51.8033 5.29311 52.8764 6.34532 54.9487 6.34532C57.0209 6.34532 58.0939 5.29311 58.9561 4.44762C59.7098 3.70855 60.2078 3.22026 61.3227 3.22026C62.4379 3.22026 62.9358 3.70855 63.6896 4.44762C64.5521 5.29311 65.6253 6.34532 67.6977 6.34532C69.3905 6.34532 70.4176 5.62608 71.1233 4.99935C71.5227 4.64435 71.9273 4.81888 72.0823 4.9106C72.2106 4.98638 72.6193 5.27795 72.4901 5.8489C72.1348 7.42206 71.6185 8.56224 71.259 9.22913C56.2029 7.39347 40.9482 7.39347 25.8937 9.22929ZM74.8736 78.4063C73.2957 78.4658 71.7129 78.5057 70.128 78.5222C70.8287 73.3815 72.129 68.1917 74.0028 63.0751C74.2253 62.4672 73.9131 61.7943 73.3053 61.5716C72.6973 61.3491 72.0246 61.6614 71.8018 62.2691C69.831 67.6511 68.4736 73.116 67.7613 78.5296C66.1859 78.5247 64.6117 78.4985 63.0412 78.4513C64.6295 66.9004 68.8661 58.0203 70.3293 55.2168C71.8038 55.234 73.2765 55.2715 74.7448 55.3258C74.4061 56.0179 74.007 56.867 73.5745 57.8551C73.315 58.4479 73.585 59.139 74.1779 59.3986C74.3309 59.4656 74.4903 59.4973 74.6473 59.4973C75.0987 59.4973 75.5289 59.235 75.7214 58.7951C76.3389 57.3849 76.8828 56.2727 77.2708 55.5154C78.6588 55.7879 79.9007 56.4465 80.8824 57.376C79.0208 61.5438 76.1077 69.1814 74.8736 78.4063ZM38.1963 69.6386C37.4424 70.3777 36.9441 70.8661 35.8291 70.8661C34.714 70.8661 34.2159 70.3779 33.4621 69.6388C32.5996 68.7933 31.5265 67.7411 29.4541 67.7411C27.7628 67.7411 26.7356 68.46 26.0287 69.0871C25.629 69.4421 25.2253 69.2675 25.0706 69.176C24.9422 69.1002 24.5334 68.8085 24.6628 68.2367C25.0447 66.5453 25.6133 65.3532 25.9736 64.7126C31.4923 65.3837 37.0667 65.8145 42.5886 65.9912C42.4987 66.2748 42.4514 66.5679 42.4514 66.8689C42.4514 67.1729 42.4995 67.4692 42.5914 67.7555C42.4659 67.747 42.3378 67.7412 42.2045 67.7412C40.1318 67.7411 39.0587 68.7933 38.1963 69.6386ZM45.4463 74.4056C45.1874 74.3478 44.8541 74.2112 44.5744 73.6639C44.258 73.0443 44.3306 72.6888 44.4131 72.4754C44.6558 71.8465 45.5408 71.2154 46.9052 70.6983C47.3649 70.5241 47.6671 70.0816 47.662 69.59C47.6568 69.0985 47.3454 68.6624 46.8821 68.498C45.4482 67.9889 44.7952 67.2966 44.7952 66.8686C44.7952 66.4406 45.4483 65.7482 46.8821 65.2392C47.3454 65.0748 47.6568 64.6387 47.662 64.1471C47.667 63.6555 47.3649 63.213 46.9052 63.039C45.5408 62.5219 44.6558 61.891 44.4131 61.2619C44.3308 61.0485 44.258 60.693 44.5744 60.0736C44.8541 59.5261 45.1874 59.3895 45.4463 59.3317C45.9983 59.2084 47.6282 59.2245 51.1236 61.8161C51.1131 61.9336 51.1028 62.0511 51.0966 62.1699C50.932 65.2876 50.932 68.4492 51.0966 71.5669C51.1028 71.6857 51.1131 71.8032 51.1236 71.9207C47.6285 74.5125 45.9991 74.5287 45.4463 74.4056ZM53.4369 62.2936C53.6357 58.5248 56.6357 55.5537 60.4149 55.3826C60.4536 55.3808 60.4927 55.3798 60.5314 55.3779C58.9234 58.6822 55.9209 65.6298 54.2365 74.4123C53.7755 73.5175 53.4933 72.5129 53.4369 71.444C53.2769 68.4081 53.2769 65.3295 53.4369 62.2936ZM56.1951 76.7875C57.9329 66.1062 61.8472 57.8931 63.2012 55.2815C64.7006 55.2377 66.2036 55.213 67.7073 55.208C65.8576 58.9679 62.1379 67.5606 60.6878 78.3658C60.5969 78.3619 60.5058 78.3591 60.4149 78.355C58.818 78.2827 57.3612 77.7089 56.1951 76.7875ZM83.1476 71.4438C82.9686 74.8398 80.5145 77.5872 77.2658 78.2229C78.3772 70.3579 80.7265 63.7229 82.4762 59.5883C82.8608 60.4155 83.0967 61.328 83.1476 62.2935C83.3076 65.3295 83.3076 68.408 83.1476 71.4438ZM92.0103 73.6637C91.7306 74.2112 91.3973 74.3478 91.1384 74.4056C90.5861 74.5286 88.9564 74.5126 85.4611 71.9212C85.4716 71.8037 85.4819 71.686 85.4882 71.5673C85.6527 68.4495 85.6527 65.2879 85.4882 62.1702C85.4819 62.0514 85.4716 61.9339 85.4611 61.8164C88.956 59.225 90.5856 59.2086 91.1384 59.332C91.3973 59.3898 91.7306 59.5264 92.0103 60.0736C92.3267 60.6931 92.2539 61.0486 92.1714 61.2621C91.9288 61.891 91.0437 62.5221 89.6793 63.039C89.2198 63.2132 88.9176 63.6557 88.9226 64.1473C88.9278 64.6388 89.2392 65.0749 89.7025 65.2393C91.1365 65.7484 91.7895 66.4408 91.7895 66.8687C91.7895 67.2967 91.1364 67.9891 89.7025 68.4981C89.2392 68.6625 88.9278 69.0986 88.9226 69.5902C88.9174 70.0818 89.2196 70.5243 89.6793 70.6985C91.0437 71.2154 91.9288 71.8465 92.1716 72.4756C92.2538 72.6888 92.3267 73.0443 92.0103 73.6637Z" fill="#3BB77E"/>
<path d="M40.7346 33.0997C45.9378 32.4086 51.2135 32.4086 56.4164 33.0997C56.4688 33.1066 56.5208 33.11 56.5722 33.11C57.1508 33.11 57.6541 32.6816 57.7324 32.0924C57.8177 31.4508 57.3666 30.8616 56.725 30.7764C51.3179 30.0583 45.8339 30.0583 40.426 30.7764C39.7844 30.8616 39.3333 31.4508 39.4186 32.0924C39.5039 32.7339 40.093 33.1847 40.7346 33.0997Z" fill="#3BB77E"/>
<path d="M57.7324 42.1478C57.6473 41.5063 57.0576 41.0556 56.4164 41.1405C51.2135 41.8316 45.9378 41.8316 40.7346 41.1405C40.0933 41.0553 39.5038 41.5063 39.4186 42.1478C39.3333 42.7894 39.7844 43.3786 40.426 43.4638C43.1298 43.8229 45.8525 44.0024 48.5754 44.0024C51.2984 44.0024 54.0212 43.8229 56.7249 43.4638C57.3668 43.3786 57.8177 42.7894 57.7324 42.1478Z" fill="#3BB77E"/>
<path d="M60.907 37.1199C60.907 36.4727 60.3824 35.948 59.7351 35.948H37.416C36.7687 35.948 36.2441 36.4727 36.2441 37.1199C36.2441 37.7671 36.7687 38.2918 37.416 38.2918H59.7351C60.3823 38.2918 60.907 37.7671 60.907 37.1199Z" fill="#3BB77E"/>
</g>
</g>
</g>
</g>
<defs>
<clipPath id="clip0_6511_722">
<rect width="116" height="87" fill="white" transform="translate(0.4375 0.876465)"/>
</clipPath>
<clipPath id="clip1_6511_722">
<rect x="18.4375" y="0.876465" width="80" height="80" rx="10" fill="white"/>
</clipPath>
<clipPath id="clip2_6511_722">
<rect width="80" height="80" fill="white" transform="translate(18.4375 0.876465)"/>
</clipPath>
<clipPath id="clip3_6511_722">
<rect width="80" height="80" fill="white" transform="translate(18.4375 0.876465)"/>
</clipPath>
</defs>
</svg>
