<svg width="117" height="88" viewBox="0 0 117 88" fill="none" xmlns="http://www.w3.org/2000/svg">
<g clip-path="url(#clip0_6511_679)">
<g clip-path="url(#clip1_6511_679)">
<g clip-path="url(#clip2_6511_679)">
<g clip-path="url(#clip3_6511_679)">
<mask id="mask0_6511_679" style="mask-type:luminance" maskUnits="userSpaceOnUse" x="18" y="0" width="81" height="81">
<path d="M98.4375 0.876465H18.4375V80.8765H98.4375V0.876465Z" fill="white"/>
</mask>
<g mask="url(#mask0_6511_679)">
<path d="M82.9375 36.3765H52.9375V38.3765L53.4375 39.3765L55.9375 41.8765L57.9375 42.8765L58.9375 44.3765L58.4375 46.3765L54.9375 47.8765L52.9375 51.3765L52.4375 61.8765L53.9375 73.3765L54.9375 76.8765L56.9375 78.8765C57.4375 79.0432 58.6375 79.3765 59.4375 79.3765C60.4375 79.3765 64.9375 79.8765 65.9375 79.8765H71.4375H74.9375L73.9375 77.8765C73.6042 77.0432 72.9375 75.0765 72.9375 73.8765C72.9375 72.6765 72.6042 69.3765 72.4375 67.8765V60.3765C72.4375 59.5765 73.4375 53.7098 73.9375 50.8765V49.3765C73.9375 48.8765 75.4375 48.8765 75.9375 48.3765C76.4375 47.8765 77.9375 47.8765 78.4375 47.8765C78.9375 47.8765 80.4375 47.3765 80.9375 47.3765C81.4375 47.3765 80.4375 46.8765 79.9375 46.3765C79.4375 45.8765 79.9375 45.8765 79.9375 45.3765C79.9375 44.8765 79.9375 43.8765 79.4375 43.3765C79.0375 42.9765 80.2708 42.2098 80.9375 41.8765C81.4375 41.7098 82.4375 41.2765 82.4375 40.8765C82.4375 40.4765 83.4375 40.0432 83.9375 39.8765L84.9375 38.3765V36.8765L82.9375 36.3765Z" fill="#FDC040"/>
<path d="M25.9941 62.4693C25.9941 64.974 28.0318 67.0117 30.5364 67.0117C33.041 67.0117 35.0787 64.974 35.0787 62.4693C35.0787 59.9646 33.041 57.927 30.5364 57.927C28.0318 57.927 25.9941 59.9646 25.9941 62.4693ZM32.7351 62.4693C32.7351 63.6817 31.7489 64.6679 30.5365 64.6679C29.3242 64.6679 28.3381 63.6817 28.3381 62.4693C28.3381 61.257 29.3243 60.2707 30.5365 60.2707C31.7487 60.2707 32.7351 61.2571 32.7351 62.4693Z" fill="#3BB77E"/>
<path d="M36.3124 56.2079C38.2843 56.2079 39.8886 54.6036 39.8886 52.6318C39.8886 50.6599 38.2843 49.0557 36.3124 49.0557C34.3405 49.0557 32.7363 50.6599 32.7363 52.6318C32.7363 54.6036 34.3405 56.2079 36.3124 56.2079ZM36.3124 51.3993C36.9921 51.3993 37.5449 51.9521 37.5449 52.6316C37.5449 53.3111 36.9921 53.864 36.3124 53.864C35.6329 53.864 35.08 53.3111 35.08 52.6316C35.08 51.9521 35.633 51.3993 36.3124 51.3993Z" fill="#3BB77E"/>
<path d="M48.7834 70.8739C48.7834 68.902 47.179 67.2979 45.2071 67.2979C43.2353 67.2979 41.6309 68.902 41.6309 70.8739C41.6309 72.8457 43.2353 74.4501 45.2071 74.4501C47.179 74.4501 48.7834 72.8457 48.7834 70.8739ZM43.9748 70.8739C43.9748 70.1943 44.5276 69.6415 45.2073 69.6415C45.887 69.6415 46.4398 70.1943 46.4398 70.8739C46.4398 71.5534 45.887 72.1062 45.2073 72.1062C44.5276 72.1062 43.9748 71.5534 43.9748 70.8739Z" fill="#3BB77E"/>
<path d="M95.936 51.1027C95.5985 48.6479 93.4779 46.7968 91.0034 46.7968H90.1732L90.9731 44.7168C91.2054 44.1128 90.904 43.4346 90.2998 43.2024C89.6956 42.9699 89.0176 43.2717 88.7856 43.8756L87.6623 46.7968H82.7856C82.6204 46.7176 82.4532 46.6432 82.2829 46.5796C81.0646 46.1256 80.447 45.4182 80.447 44.4777C80.447 43.6013 81.9287 42.8904 82.5668 42.6249C84.4601 41.8349 85.8171 40.164 86.1968 38.1543C86.9834 33.9812 87.3406 29.5162 87.4837 27.2246C87.5565 26.0346 87.2871 24.8704 86.7048 23.8579C83.6454 18.5385 78.1035 14.9165 76.2501 13.8078V10.0602H76.3112C76.9585 10.0602 77.4831 9.53552 77.4831 8.88834V4.67443C77.4831 2.58021 75.7792 0.876465 73.6849 0.876465H64.404C62.3099 0.876465 60.606 2.58021 60.606 4.67443V8.88834C60.606 9.53552 61.1306 10.0602 61.7779 10.0602H61.8393V13.8073C60.6431 14.5228 57.9103 16.2863 55.3003 18.876V18.0538C56.6351 17.3317 57.5439 15.9188 57.5439 14.2976C57.5439 11.9443 55.6293 10.0299 53.276 10.0299H34.7596C32.4064 10.0299 30.492 11.9445 30.492 14.2976C30.492 15.9192 31.4012 17.3323 32.7365 18.0543V21.6398C31.1324 22.5756 26.7748 25.3571 22.9361 29.9685C22.2464 30.7993 21.8069 31.8074 21.665 32.8845C21.4742 34.3338 21.1883 36.7001 20.9098 39.7413C20.8508 40.3859 21.3255 40.9562 21.97 41.0152C22.0062 41.0185 22.0423 41.0203 22.0781 41.0203C22.677 41.0203 23.1881 40.5634 23.2437 39.9551C23.5187 36.952 23.8005 34.6187 23.9886 33.1906C24.0498 32.7259 24.2051 32.2838 24.4414 31.8887H50.9982C51.2049 33.8381 51.4937 36.0346 51.8923 38.1535C52.2701 40.1632 53.6273 41.8348 55.5235 42.6252C56.1601 42.8901 57.6407 43.6007 57.6407 44.4776C57.6407 45.4185 57.0237 46.1257 55.8059 46.5798C53.6192 47.3965 52.0774 49.4112 51.8781 51.7121C51.4168 57.0198 51.0745 67.2902 53.9654 76.4412C54.2089 77.2123 54.5885 77.9092 55.0723 78.5107C54.8473 78.5245 54.6218 78.5329 54.3954 78.5329H33.6393C27.9737 78.5329 23.2106 74.1149 22.7956 68.4751C22.2597 61.1903 22.2855 53.1573 22.8725 44.5992C22.9167 43.9534 22.4292 43.3942 21.7836 43.3498C21.1384 43.3051 20.5784 43.7929 20.5342 44.4387C19.9397 53.1071 19.9141 61.252 20.4583 68.647C20.7036 71.9826 22.1909 75.0731 24.6462 77.3495C27.0994 79.6238 30.2932 80.8765 33.6393 80.8765H54.3956C55.5279 80.8765 56.6489 80.7327 57.7346 80.4503C58.4532 80.726 59.2314 80.8757 60.0393 80.8757L91.0034 80.8765C93.4779 80.8765 95.5985 79.0254 95.936 76.5704C97.0976 68.1209 97.0976 59.5524 95.936 51.1027ZM94.3542 68.2652C93.4207 68.8363 92.3587 69.1367 91.2517 69.1367C87.9674 69.1367 85.2956 66.4654 85.2956 63.1821C85.2956 59.8979 87.9676 57.2259 91.2517 57.2259C92.3285 57.2259 93.364 57.5101 94.2771 58.0507C94.4932 61.452 94.5196 64.8621 94.3542 68.2652ZM85.1445 27.0798C85.0326 28.8706 84.7868 32.0209 84.3017 35.284H53.7884C53.304 32.0238 53.0565 28.8721 52.9434 27.0812C52.8987 26.3499 53.0618 25.6399 53.416 25.0259C53.559 24.7773 53.7089 24.5327 53.864 24.2918H84.2248C84.3801 24.5327 84.5301 24.7774 84.6731 25.026C85.0262 25.6398 85.189 26.3504 85.1445 27.0798ZM35.0803 18.5654H52.9565V21.1543H35.0803V18.5654ZM62.9498 4.67443C62.9498 3.87255 63.6021 3.22021 64.404 3.22021H73.6849C74.4868 3.22021 75.1393 3.87255 75.1393 4.67443V7.71646H62.9498V4.67443ZM73.9064 10.0602V13.3132H64.1831V10.0602H73.9064ZM63.3201 15.657H74.769C75.7584 16.2349 79.4768 18.5271 82.4523 21.9482H55.6365C58.612 18.5265 62.3318 16.2342 63.3201 15.657ZM34.7596 12.3737H53.276C54.337 12.3737 55.2001 13.2368 55.2001 14.2976C55.2001 15.3581 54.3378 16.2207 53.2774 16.2215H34.7581C33.6978 16.2207 32.8356 15.3579 32.8356 14.2976C32.8356 13.2368 33.6987 12.3737 34.7596 12.3737ZM26.4742 29.5449C29.856 26.0779 33.2857 24.0215 34.2098 23.4984H51.5982C51.5265 23.6171 51.4546 23.7356 51.3854 23.856C50.8015 24.8679 50.5314 26.0326 50.6043 27.2267C50.6439 27.8534 50.6998 28.6437 50.7757 29.5449H26.4742ZM91.0034 78.5327H78.0501L77.2284 78.532C75.9256 78.5242 74.8113 77.5467 74.6332 76.2513C74.4487 74.9081 74.2935 73.5562 74.172 72.2332C74.1126 71.5888 73.5423 71.1135 72.8978 71.1735C72.2532 71.2327 71.7788 71.8032 71.8381 72.4478C71.9629 73.8054 72.1221 75.1923 72.3113 76.5704C72.4098 77.286 72.6606 77.9498 73.0267 78.5318H60.0393C58.2714 78.5318 56.7287 77.4079 56.2006 75.7351C53.4318 66.9707 53.767 57.049 54.2131 51.9145C54.3348 50.5095 55.282 49.2773 56.6253 48.7754C58.7601 47.9795 59.9845 46.4129 59.9845 44.4774C59.9845 43.321 59.3668 41.6854 56.4246 40.4615C55.2604 39.9762 54.4271 38.9515 54.1957 37.7203C54.1899 37.6895 54.1843 37.6584 54.1787 37.6276H83.9107C83.9051 37.6581 83.8995 37.6888 83.8937 37.7193C83.6609 38.9512 82.8274 39.9763 81.6653 40.4612C78.7209 41.686 78.1029 43.3213 78.1029 44.4776C78.1029 45.3348 78.3443 46.1192 78.7976 46.7968H77.2437C74.7692 46.7968 72.6485 48.6479 72.311 51.1026C71.5546 56.5953 71.289 62.1918 71.5213 67.7365C71.5485 68.3832 72.101 68.8846 72.7412 68.8582C73.3879 68.8312 73.8903 68.2849 73.8631 67.6384C73.6367 62.2329 73.8956 56.777 74.6329 51.4221C74.812 50.1215 75.9343 49.1406 77.2439 49.1406H91.0034C92.3129 49.1406 93.4353 50.1215 93.6143 51.422C93.7949 52.7356 93.9434 54.0524 94.0664 55.371C93.1724 55.0488 92.224 54.8821 91.2517 54.8821C86.6751 54.8821 82.9518 58.6054 82.9518 63.1821C82.9518 67.7579 86.6751 71.4804 91.2517 71.4804C92.2667 71.4804 93.2546 71.2993 94.1824 70.9488C94.0438 72.7199 93.8567 74.4882 93.6143 76.251C93.4353 77.5518 92.3129 78.5327 91.0034 78.5327Z" fill="#3BB77E"/>
</g>
</g>
</g>
</g>
</g>
<defs>
<clipPath id="clip0_6511_679">
<rect width="116" height="87" fill="white" transform="translate(0.4375 0.876465)"/>
</clipPath>
<clipPath id="clip1_6511_679">
<rect x="18.4375" y="0.876465" width="80" height="80" rx="10" fill="white"/>
</clipPath>
<clipPath id="clip2_6511_679">
<rect width="80" height="80" fill="white" transform="translate(18.4375 0.876465)"/>
</clipPath>
<clipPath id="clip3_6511_679">
<rect width="80" height="80" fill="white" transform="translate(18.4375 0.876465)"/>
</clipPath>
</defs>
</svg>
