<svg width="117" height="88" viewBox="0 0 117 88" fill="none" xmlns="http://www.w3.org/2000/svg">
<g clip-path="url(#clip0_6511_708)">
<g clip-path="url(#clip1_6511_708)">
<g clip-path="url(#clip2_6511_708)">
<g clip-path="url(#clip3_6511_708)">
<path d="M47.4375 53.8765C57.9309 53.8765 66.4375 45.8176 66.4375 35.8765C66.4375 25.9353 57.9309 17.8765 47.4375 17.8765C36.9441 17.8765 28.4375 25.9353 28.4375 35.8765C28.4375 45.8176 36.9441 53.8765 47.4375 53.8765Z" fill="#FDC040"/>
<path d="M47.6626 55.3677C59.0884 55.3677 68.3839 46.7692 68.3839 36.2001C68.3839 25.631 59.0883 17.0325 47.6626 17.0325C36.2369 17.0325 26.9414 25.631 26.9414 36.2001C26.9414 46.7692 36.2369 55.3677 47.6626 55.3677ZM47.6626 19.3785C57.7948 19.3785 66.0379 26.9246 66.0379 36.2001C66.0379 45.4756 57.7947 53.0217 47.6626 53.0217C37.5305 53.0217 29.2874 45.4756 29.2874 36.2001C29.2874 26.9246 37.5305 19.3785 47.6626 19.3785Z" fill="#3BB77E"/>
<path d="M54.0078 33.226C54.0078 35.1315 55.558 36.6818 57.4636 36.6818C59.3691 36.6818 60.9193 35.1315 60.9193 33.226C60.9193 31.3206 59.3691 29.7703 57.4636 29.7703C55.558 29.7703 54.0078 31.3206 54.0078 33.226ZM57.4635 32.1164C58.0753 32.1164 58.5731 32.6142 58.5731 33.226C58.5731 33.8379 58.0753 34.3357 57.4635 34.3357C56.8515 34.3357 56.3536 33.8379 56.3536 33.226C56.3536 32.6142 56.8516 32.1164 57.4635 32.1164Z" fill="#3BB77E"/>
<path d="M51.8679 30.9586C53.7733 30.9586 55.3236 29.4083 55.3236 27.5029C55.3236 25.5974 53.7733 24.0471 51.8679 24.0471C49.9624 24.0471 48.4121 25.5974 48.4121 27.5029C48.4121 29.4083 49.9624 30.9586 51.8679 30.9586ZM51.8679 26.393C52.4797 26.393 52.9775 26.8909 52.9775 27.5027C52.9775 28.1146 52.4797 28.6124 51.8679 28.6124C51.256 28.6124 50.7582 28.1146 50.7582 27.5027C50.7582 26.8909 51.256 26.393 51.8679 26.393Z" fill="#3BB77E"/>
<path d="M37.8619 36.6818C39.7675 36.6818 41.3179 35.1315 41.3179 33.226C41.3179 31.3206 39.7675 29.7703 37.8619 29.7703C35.9565 29.7703 34.4062 31.3206 34.4062 33.226C34.4062 35.1315 35.9565 36.6818 37.8619 36.6818ZM37.8619 32.1164C38.4739 32.1164 38.9718 32.6142 38.9718 33.226C38.9718 33.8379 38.4739 34.3357 37.8619 34.3357C37.2501 34.3357 36.7523 33.8379 36.7523 33.226C36.7523 32.6142 37.2501 32.1164 37.8619 32.1164Z" fill="#3BB77E"/>
<path d="M43.4558 30.9586C45.3612 30.9586 46.9115 29.4083 46.9115 27.5029C46.9115 25.5974 45.3612 24.0471 43.4558 24.0471C41.5503 24.0471 40 25.5974 40 27.5029C40 29.4083 41.5503 30.9586 43.4558 30.9586ZM43.4558 26.393C44.0676 26.393 44.5654 26.8909 44.5654 27.5027C44.5654 28.1146 44.0676 28.6124 43.4558 28.6124C42.8439 28.6124 42.3461 28.1146 42.3461 27.5027C42.3461 26.8909 42.8439 26.393 43.4558 26.393Z" fill="#3BB77E"/>
<path d="M41.7392 35.6455C41.5762 36.4123 41.1406 37.1136 40.4795 37.6737C38.9946 38.9315 38.2186 40.7689 38.3503 42.7147C38.5555 45.7456 40.998 48.1652 44.0318 48.3427C45.0323 48.4009 46.0365 48.2118 46.9368 47.7947C47.3916 47.584 47.9348 47.584 48.3896 47.7947C49.1832 48.1624 50.0576 48.353 50.9388 48.353C51.0574 48.353 51.1762 48.3496 51.2948 48.3427C54.3285 48.165 56.7709 45.7455 56.9761 42.7146C57.1078 40.7687 56.3317 38.9313 54.847 37.6737C54.1859 37.1136 53.7503 36.4123 53.5875 35.6456C53.3046 34.3145 52.5993 33.1444 51.5478 32.2618C49.333 30.4027 45.9932 30.4027 43.7785 32.2618C42.7272 33.1446 42.0221 34.3146 41.7392 35.6455ZM45.287 34.0586C46.6416 32.9214 48.6847 32.9214 50.0393 34.0586C50.6862 34.6015 51.1195 35.3189 51.2924 36.1331C51.5644 37.4128 52.269 38.5646 53.3304 39.4637C54.2405 40.2346 54.7161 41.3618 54.6352 42.5561C54.5096 44.4111 53.0146 45.8919 51.1575 46.0006C50.534 46.037 49.9339 45.9246 49.3756 45.6659C48.8314 45.4138 48.2473 45.2878 47.6631 45.2878C47.079 45.2878 46.4946 45.4139 45.9505 45.6659C45.3923 45.9246 44.7925 46.0373 44.1688 46.0006C42.3116 45.8919 40.8166 44.4111 40.691 42.5563C40.6101 41.3618 41.0858 40.2346 41.9959 39.4637C43.0572 38.5647 43.762 37.413 44.0339 36.1331C44.2071 35.319 44.6403 34.6016 45.287 34.0586Z" fill="#3BB77E"/>
<path d="M93.8158 63.6775C96.3071 60.4989 97.6781 56.5446 97.6781 52.4925C97.6781 42.4809 89.533 34.3357 79.5213 34.3357C77.6497 34.3357 75.821 34.617 74.0643 35.1712C73.9379 29.3717 73.6372 23.5799 73.1603 17.8191C72.9898 15.7728 73.4363 13.7764 74.4517 12.0457C75.8316 9.69195 77.0674 6.47677 75.1167 4.52596C74.2806 3.69046 72.1371 2.47928 63.214 1.61124C57.6442 1.06947 51.5281 0.876465 47.6615 0.876465C43.7949 0.876465 37.6788 1.06947 32.1088 1.6114C23.1857 2.47943 21.0423 3.69061 20.2059 4.52643C18.2554 6.47678 19.4911 9.69194 20.8712 12.0462C21.8864 13.7766 22.333 15.7729 22.1623 17.8188C22.0962 18.6099 22.0306 19.4521 21.9565 20.4697C21.9093 21.1158 22.3949 21.6779 23.041 21.725C23.6873 21.7724 24.2492 21.2866 24.2963 20.6405C24.37 19.6315 24.4347 18.797 24.5002 18.0142C24.7112 15.4833 24.156 13.009 22.8949 10.8592C22.8308 10.7497 22.7707 10.6426 22.711 10.5356C26.2623 9.04021 37.8596 8.06504 47.6616 8.06504C51.3925 8.06504 57.3128 8.24897 62.7395 8.76495C68.7325 9.33488 71.4133 10.0432 72.6085 10.5415C72.5498 10.6465 72.491 10.7516 72.428 10.859C71.1668 13.009 70.6114 15.4831 70.8222 18.0135C72.0384 32.7057 72.1024 47.6017 71.0194 62.3087C68.5026 62.3081 65.9853 62.3279 63.4813 62.3689C63.1599 58.3784 59.8098 55.2297 55.738 55.2297C51.4544 55.2297 47.9694 58.7147 47.9694 62.9983C47.9694 64.8698 48.6395 66.6543 49.8399 68.0532C49.5396 68.4031 49.2726 68.777 49.041 69.1705C42.0244 69.222 34.9164 68.8795 27.9034 68.1486C26.0699 67.9586 24.6302 66.482 24.4801 64.6369C23.4106 51.5856 23.2465 38.3461 23.9924 25.286C24.0293 24.6392 23.5349 24.0849 22.8882 24.0479C22.2416 24.0113 21.6872 24.5054 21.6501 25.1521C20.898 38.3203 21.0634 51.6692 22.1417 64.8275C22.3832 67.7975 24.7047 70.1754 27.6608 70.4818C34.2955 71.1733 41.0136 71.5227 47.6641 71.5225C47.821 71.5225 47.9776 71.5203 48.1344 71.5199C48.0267 72.0374 47.9693 72.5687 47.9693 73.1078C47.9693 77.3914 51.4542 80.8763 55.7378 80.8763C59.8096 80.8763 63.1597 77.7278 63.4811 73.7372C68.4149 73.8182 73.3994 73.8182 78.3319 73.7372C78.6533 77.7276 82.0036 80.8763 86.0754 80.8763C87.3254 80.8763 88.5694 80.5718 89.6728 79.9955C90.2471 79.6957 90.4695 78.987 90.1697 78.4127C89.8696 77.8384 89.1609 77.6158 88.5869 77.916C87.8063 78.3235 86.9613 78.5303 86.0754 78.5303C83.0854 78.5303 80.6528 76.0978 80.6528 73.1078C80.6528 72.9721 80.66 72.8241 80.6754 72.6421C80.7034 72.3111 80.5897 71.9838 80.3626 71.7413C80.1355 71.4989 79.8165 71.3641 79.4841 71.3705C73.7933 71.4792 68.0214 71.4792 62.3292 71.3705C61.9988 71.3642 61.678 71.4989 61.4507 71.7413C61.2236 71.9838 61.1099 72.3111 61.1379 72.6421C61.1532 72.8229 61.1604 72.971 61.1604 73.1078C61.1604 76.0978 58.7279 78.5303 55.738 78.5303C52.748 78.5303 50.3155 76.0978 50.3155 73.1078C50.3155 71.502 51.023 69.987 52.2569 68.9513C52.5223 68.7284 52.6758 68.3995 52.6758 68.0529C52.6758 67.7063 52.5225 67.3774 52.2569 67.1545C51.023 66.1188 50.3155 64.6039 50.3155 62.9979C50.3155 60.008 52.748 57.5755 55.738 57.5755C58.7279 57.5755 61.1604 60.008 61.1604 62.9979C61.1604 63.1348 61.1532 63.2829 61.1379 63.4637C61.1099 63.7947 61.2236 64.122 61.4507 64.3644C61.678 64.6069 61.9984 64.7425 62.3292 64.7353C68.0212 64.6267 73.7931 64.6267 79.4841 64.7353C79.8168 64.7425 80.1355 64.6069 80.3626 64.3644C80.5897 64.122 80.7034 63.7947 80.6754 63.4637C80.66 63.2817 80.6528 63.1337 80.6528 62.9979C80.6528 60.008 83.0854 57.5755 86.0754 57.5755C89.0661 57.5755 91.4995 60.008 91.4995 62.9979C91.4995 64.6042 90.7916 66.119 89.5569 67.154C89.2912 67.3769 89.1376 67.706 89.1376 68.0529C89.1376 68.3998 89.291 68.7289 89.5569 68.9517C90.7916 69.9868 91.4995 71.5017 91.4995 73.1078C91.4995 73.7926 91.3737 74.4596 91.1256 75.0902C90.8884 75.6932 91.1851 76.374 91.7879 76.6112C92.3908 76.8483 93.0718 76.5518 93.3089 75.949C93.6648 75.0438 93.8455 74.088 93.8455 73.108C93.8455 71.2361 93.1751 69.4516 91.9741 68.053C93.0291 66.825 93.6742 65.2988 93.8158 63.6775ZM47.6618 5.71885C47.4496 5.71885 28.0889 5.75264 21.763 8.4132C21.4399 7.37124 21.4631 6.58719 21.8647 6.18555C22.182 5.86837 23.8751 4.76948 32.336 3.94633C37.8225 3.41269 43.8501 3.2225 47.6615 3.2225C51.4729 3.2225 57.5005 3.41269 62.9869 3.94633C71.4478 4.76948 73.1409 5.86837 73.4579 6.18525C73.8599 6.58719 73.8832 7.37109 73.5601 8.41304C67.234 5.75278 47.8742 5.71885 47.6618 5.71885ZM86.0757 55.2296C82.0039 55.2296 78.6536 58.3781 78.3322 62.3687C76.6833 62.3417 75.0279 62.3271 73.3711 62.3181C73.9697 54.1252 74.2168 45.875 74.1076 37.6332C75.8367 37.0016 77.6541 36.6818 79.5213 36.6818C88.2394 36.6818 95.3321 43.7745 95.3321 52.4925C95.3321 55.2008 94.6294 57.8595 93.3223 60.2005C92.1967 57.2957 89.3738 55.2296 86.0757 55.2296Z" fill="#3BB77E"/>
</g>
</g>
</g>
</g>
<defs>
<clipPath id="clip0_6511_708">
<rect width="116" height="87" fill="white" transform="translate(0.4375 0.876465)"/>
</clipPath>
<clipPath id="clip1_6511_708">
<rect x="18.4375" y="0.876465" width="80" height="80" rx="10" fill="white"/>
</clipPath>
<clipPath id="clip2_6511_708">
<rect width="80" height="80" fill="white" transform="translate(18.4375 0.876465)"/>
</clipPath>
<clipPath id="clip3_6511_708">
<rect width="80" height="80" fill="white" transform="translate(18.4375 0.876465)"/>
</clipPath>
</defs>
</svg>
